<svg width="20" height="20" viewBox="0 0 20 20" fill="none" xmlns="http://www.w3.org/2000/svg">
<path fill-rule="evenodd" clip-rule="evenodd" d="M0 9.97449C0 4.46571 4.46592 0 9.97449 0C15.4831 0 19.949 4.46571 19.949 9.97449C19.949 15.4833 15.4831 19.949 9.97449 19.949C4.46592 19.949 0 15.4833 0 9.97449ZM15.4088 11.4117C15.2832 11.2929 15.1577 11.174 15.0341 11.0533C14.6145 10.6439 14.5878 10.4065 14.9257 9.9351C15.1216 9.66034 15.3256 9.39132 15.5296 9.12226C15.7085 8.8863 15.8875 8.65032 16.061 8.41041C16.0733 8.39346 16.0855 8.37651 16.0978 8.35956C16.4324 7.89688 16.7685 7.43215 16.9445 6.87816C17.0604 6.51265 16.9578 6.35143 16.5831 6.28735C16.5182 6.27612 16.4516 6.27551 16.3861 6.27551L14.1629 6.27286C13.889 6.26878 13.738 6.38816 13.6408 6.63082C13.5102 6.95898 13.3757 7.28653 13.2198 7.60306C12.8665 8.32082 12.472 9.01429 11.9184 9.60184C11.9105 9.61014 11.9026 9.61858 11.8947 9.62709C11.7787 9.7511 11.6485 9.89037 11.4576 9.82735C11.2029 9.73449 11.1273 9.31408 11.1316 9.17225L11.1296 6.60653C11.0802 6.24 10.9986 6.07674 10.6347 6.00531L8.32592 6.00571C8.01755 6.00571 7.86327 6.1249 7.69857 6.31755C7.60367 6.42898 7.5751 6.50122 7.7702 6.53816C8.15327 6.61082 8.36939 6.85898 8.42653 7.24327C8.51837 7.85735 8.51204 8.47367 8.45898 9.0902C8.44347 9.2702 8.41265 9.4498 8.34122 9.61775C8.22959 9.88204 8.04918 9.93571 7.81245 9.77327C7.59796 9.62612 7.44735 9.41837 7.2998 9.21C6.74612 8.42755 6.30429 7.58388 5.94388 6.69714C5.83959 6.44102 5.66 6.28571 5.38857 6.28143C4.72163 6.27082 4.05469 6.26918 3.38776 6.28204C2.98633 6.28959 2.86673 6.48429 3.0302 6.84816C3.75653 8.46388 4.5649 10.0345 5.62041 11.4655C6.16245 12.1996 6.78449 12.848 7.58816 13.3073C8.49918 13.8282 9.47939 13.9849 10.5124 13.9365C10.9959 13.9139 11.1412 13.788 11.1635 13.3061C11.179 12.9765 11.2161 12.6484 11.3788 12.3522C11.5384 12.0612 11.7804 12.0057 12.059 12.1869C12.1986 12.2773 12.3157 12.3922 12.4269 12.5143C12.517 12.6127 12.606 12.7122 12.695 12.8116C12.875 13.0128 13.055 13.2139 13.2441 13.4063C13.5982 13.7671 14.0182 13.98 14.5459 13.9363L16.5894 13.9367C16.9184 13.9149 17.0894 13.5118 16.9 13.1443C16.7673 12.8865 16.5931 12.6573 16.4082 12.4357C16.1018 12.0679 15.7553 11.7398 15.4088 11.4117Z" fill="#BBFF74"/>
</svg>
