<svg width="20" height="21" viewBox="0 0 20 21" fill="none" xmlns="http://www.w3.org/2000/svg">
<g id="001-facebook">
<path id="Path" d="M11.5898 19.8323C11.5066 19.867 11.4232 19.8991 11.3394 19.9284C11.4232 19.8991 11.5066 19.867 11.5898 19.8323Z" fill="black"/>
<path id="Path_2" d="M11.7894 19.8111C11.7497 19.8298 11.7099 19.847 11.6702 19.8646C11.7099 19.847 11.7497 19.8298 11.7894 19.8111Z" fill="black"/>
<path id="Path_3" d="M11.1165 19.9042C11.0191 19.9324 10.9212 19.9574 10.823 19.9785C10.9212 19.9574 11.0191 19.9324 11.1165 19.9042Z" fill="black"/>
<path id="Path_4" d="M11.3082 19.8896C11.2614 19.9056 11.2144 19.9205 11.1675 19.9345C11.2144 19.9205 11.2614 19.9056 11.3082 19.8896Z" fill="black"/>
<path id="Path_5" d="M12.0611 19.7563C12.026 19.7754 11.9909 19.7946 11.9557 19.8129C11.9909 19.7946 12.026 19.7754 12.0611 19.7563Z" fill="black"/>
<path id="Path_6" d="M12.7505 19.5876C12.7171 19.6083 12.6838 19.6278 12.6505 19.6481C12.6838 19.6278 12.7171 19.6083 12.7505 19.5876Z" fill="black"/>
<path id="Path_7" d="M12.5389 19.6429C12.5057 19.6636 12.4723 19.6847 12.4389 19.7046C12.4723 19.6847 12.5057 19.664 12.5389 19.6429Z" fill="black"/>
<path id="Path_8" d="M12.2663 19.7111C12.2332 19.7307 12.1998 19.749 12.1663 19.7678C12.1998 19.749 12.2332 19.7307 12.2663 19.7111Z" fill="black"/>
<path id="Path_9" d="M10.8198 19.9466C10.7672 19.958 10.7147 19.9681 10.662 19.9771C10.7147 19.9681 10.7672 19.958 10.8198 19.9466Z" fill="black"/>
<path id="Path_10" d="M19.961 9.98051C19.961 4.46927 15.4917 0 9.98051 0C4.46927 0 0 4.46927 0 9.98051C0 15.4917 4.46927 19.961 9.98051 19.961C10.0391 19.961 10.0975 19.9598 10.1559 19.9587V12.1893H8.0117V9.69039H10.1559V7.85149C10.1559 5.71881 11.4579 4.55805 13.3603 4.55805C14.2713 4.55805 15.0544 4.62597 15.2827 4.65628V6.8852H13.9708C12.9359 6.8852 12.7354 7.3771 12.7354 8.09881V9.69039H15.2102L14.8876 12.1893H12.7354V19.5754C16.9071 18.3795 19.961 14.5361 19.961 9.98051Z" fill="#BBFF74"/>
<path id="Path_11" d="M10.64 19.9571C10.5361 19.9743 10.4318 19.9879 10.3271 19.9969C10.4318 19.9879 10.5361 19.9743 10.64 19.9571Z" fill="black"/>
<path id="Path_12" d="M10.3218 19.982C10.2667 19.9867 10.2114 19.9902 10.1561 19.9925C10.2114 19.9902 10.2667 19.9867 10.3218 19.982Z" fill="black"/>
</g>
</svg>
