<svg width="20" height="20" viewBox="0 0 20 20" fill="none" xmlns="http://www.w3.org/2000/svg">
<g id="002-instagram">
<path id="Path" d="M11.9141 10C11.9141 11.0571 11.0571 11.9141 10 11.9141C8.94287 11.9141 8.08594 11.0571 8.08594 10C8.08594 8.94287 8.94287 8.08594 10 8.08594C11.0571 8.08594 11.9141 8.94287 11.9141 10Z" fill="#BBFF74"/>
<path id="Shape" fill-rule="evenodd" clip-rule="evenodd" d="M14.4763 6.61343C14.3843 6.36411 14.2375 6.13843 14.0468 5.95319C13.8615 5.76245 13.636 5.61566 13.3865 5.52365C13.1842 5.44507 12.8802 5.35153 12.3204 5.32605C11.7148 5.29843 11.5332 5.29248 10 5.29248C8.46664 5.29248 8.28506 5.29828 7.6796 5.3259C7.11975 5.35153 6.81564 5.44507 6.61346 5.52365C6.36398 5.61566 6.13831 5.76245 5.95322 5.95319C5.76248 6.13843 5.61569 6.36395 5.52353 6.61343C5.44495 6.81577 5.35141 7.11987 5.32593 7.67972C5.29831 8.28519 5.29236 8.46677 5.29236 10.0001C5.29236 11.5333 5.29831 11.7149 5.32593 12.3205C5.35141 12.8804 5.44495 13.1843 5.52353 13.3867C5.61569 13.6361 5.76233 13.8617 5.95306 14.0469C6.13831 14.2376 6.36383 14.3844 6.61331 14.4764C6.81564 14.5552 7.11975 14.6487 7.6796 14.6742C8.28506 14.7018 8.46649 14.7076 9.99985 14.7076C11.5334 14.7076 11.7149 14.7018 12.3203 14.6742C12.8801 14.6487 13.1842 14.5552 13.3865 14.4764C13.8873 14.2833 14.2831 13.8875 14.4763 13.3867C14.5549 13.1843 14.6484 12.8804 14.6741 12.3205C14.7017 11.7149 14.7075 11.5333 14.7075 10.0001C14.7075 8.46677 14.7017 8.28519 14.6741 7.67972C14.6486 7.11987 14.5551 6.81577 14.4763 6.61343ZM10 12.9486C8.37143 12.9486 7.05124 11.6285 7.05124 9.99997C7.05124 8.3714 8.37143 7.05136 10 7.05136C11.6284 7.05136 12.9486 8.3714 12.9486 9.99997C12.9486 11.6285 11.6284 12.9486 10 12.9486ZM12.3761 6.93478C12.3761 7.31534 12.6846 7.62387 13.0652 7.62387C13.4457 7.62387 13.7541 7.31534 13.7543 6.93478C13.7543 6.55423 13.4457 6.2457 13.0652 6.2457C12.6846 6.2457 12.3761 6.55423 12.3761 6.93478Z" fill="#BBFF74"/>
<path id="Shape_2" fill-rule="evenodd" clip-rule="evenodd" d="M0 10C0 4.478 4.478 0 10 0C15.522 0 20 4.478 20 10C20 15.522 15.522 20 10 20C4.478 20 0 15.522 0 10ZM15.4407 13.7613C15.5826 13.396 15.6798 12.9787 15.7076 12.3674C15.7356 11.7551 15.7422 11.5594 15.7422 10C15.7422 8.44055 15.7356 8.24493 15.7077 7.6326C15.6798 7.02133 15.5827 6.604 15.4407 6.23871C15.2966 5.85556 15.0705 5.50858 14.7784 5.22171C14.4916 4.9295 14.1444 4.70337 13.7613 4.55917C13.396 4.41742 12.9787 4.32037 12.3674 4.2926C11.7551 4.26453 11.5594 4.25781 10 4.25781C8.44055 4.25781 8.24493 4.26453 7.6326 4.29245C7.02133 4.32037 6.604 4.41742 6.23871 4.55933C5.85556 4.70352 5.50842 4.9295 5.22171 5.22171C4.9295 5.50842 4.70337 5.85556 4.55917 6.23871C4.41727 6.604 4.32022 7.02133 4.29245 7.6326C4.26437 8.24493 4.25781 8.44055 4.25781 10C4.25781 11.5594 4.26437 11.7551 4.2926 12.3676C4.32037 12.9787 4.41757 13.3961 4.55948 13.7613C4.70367 14.1444 4.92966 14.4916 5.22171 14.7783C5.50858 15.0705 5.85556 15.2965 6.23886 15.4407C6.604 15.5826 7.02148 15.6796 7.6326 15.7076C8.24509 15.7355 8.44055 15.7422 10.0002 15.7422C11.5596 15.7422 11.7552 15.7355 12.3676 15.7076C12.9787 15.6796 13.3961 15.5826 13.7613 15.4407C14.5326 15.1424 15.1424 14.5326 15.4407 13.7613Z" fill="#BBFF74"/>
</g>
</svg>
