<svg width="20" height="20" viewBox="0 0 20 20" fill="none" xmlns="http://www.w3.org/2000/svg">
<g id="003-youtube">
<path id="Path" d="M8.75439 11.8734L12.0073 9.99994L8.75439 8.12646L8.75439 11.8734Z" fill="#BBFF74"/>
<path id="Shape" fill-rule="evenodd" clip-rule="evenodd" d="M0 10C0 4.478 4.478 0 10 0C15.522 0 20 4.478 20 10C20 15.522 15.522 20 10 20C4.478 20 0 15.522 0 10ZM15.9912 13.0162C16.2485 12.0383 16.2485 10.0102 16.2485 10.0102C16.2485 10.0102 16.2589 7.97211 15.9912 6.99417C15.847 6.45889 15.425 6.03668 14.8897 5.89264C13.9117 5.625 10 5.625 10 5.625C10 5.625 6.08826 5.625 5.11032 5.88242C4.58527 6.02646 4.15283 6.45889 4.00879 6.99417C3.75137 7.97211 3.75137 10 3.75137 10C3.75137 10 3.75137 12.0383 4.00879 13.0058C4.15298 13.5411 4.57504 13.9633 5.11032 14.1074C6.09848 14.375 10 14.375 10 14.375C10 14.375 13.9117 14.375 14.8897 14.1176C15.425 13.9735 15.847 13.5515 15.9912 13.0162Z" fill="#BBFF74"/>
</g>
</svg>
