<svg width="17" height="16" viewBox="0 0 17 16" fill="none" xmlns="http://www.w3.org/2000/svg">
<path fill-rule="evenodd" clip-rule="evenodd" d="M14.0494 1.9819C12.7715 0.703889 11.0723 0 9.26492 0C7.45756 0 5.75832 0.703889 4.48031 1.9819C3.2023 3.25991 2.49841 4.95903 2.49841 6.76651C2.49841 8.14689 2.90949 9.46404 3.67295 10.5789L0.365582 13.8691C0.129892 14.1049 0 14.4184 0 14.7518C0 15.0852 0.129892 15.3986 0.365582 15.6344C0.6091 15.8778 0.928816 15.9995 1.24853 15.9995C1.56788 15.9995 1.88711 15.8781 2.12989 15.6353L5.43542 12.3467C6.55382 13.1177 7.87732 13.5329 9.26492 13.5329C11.0723 13.5329 12.7714 12.8291 14.0494 11.551C15.3274 10.273 16.0313 8.57388 16.0313 6.76651C16.0313 4.95915 15.3274 3.25991 14.0494 1.9819ZM1.46673 14.9703C1.34626 15.0908 1.1502 15.0906 1.02972 14.9703C0.97138 14.9119 0.939212 14.8343 0.939212 14.7518C0.939212 14.6693 0.97138 14.5917 1.02886 14.5342L4.25978 11.3198C4.33121 11.3984 4.40472 11.4754 4.48019 11.551C4.55088 11.6217 4.62292 11.6902 4.69618 11.7573L1.46673 14.9703ZM5.14432 10.8869C7.41646 13.1589 11.1134 13.1589 13.3853 10.8869C15.6574 8.61485 15.6574 4.91805 13.3853 2.64604C12.2846 1.54538 10.8213 0.939212 9.2648 0.939212C7.70842 0.939212 6.24499 1.54538 5.14432 2.64604C2.87231 4.91805 2.87231 8.61485 5.14432 10.8869Z" fill="#AEAEAE"/>
<path fill-rule="evenodd" clip-rule="evenodd" d="M5.61876 3.12039C7.62928 1.11 10.9004 1.10987 12.911 3.12039C14.9214 5.13079 14.9214 8.40195 12.911 10.4125C11.9057 11.4176 10.5852 11.9203 9.26492 11.9203C7.94447 11.9203 6.62402 11.4176 5.61876 10.4125C3.60836 8.40195 3.60836 5.13079 5.61876 3.12039ZM6.2829 9.74833C7.92722 11.3925 10.6026 11.3925 12.2468 9.74833C13.891 8.104 13.891 5.42873 12.2468 3.78453C11.4248 2.96249 10.3447 2.55129 9.26492 2.55129C8.18481 2.55129 7.10518 2.96225 6.2829 3.78453C4.6387 5.42873 4.6387 8.104 6.2829 9.74833Z" fill="#AEAEAE"/>
</svg>
