<svg width="62" height="62" viewBox="0 0 62 62" fill="none" xmlns="http://www.w3.org/2000/svg">
<g id="001-graduation-cap">
<path id="Path" d="M15.3908 26.9114C15.1486 26.9113 14.9163 27.0074 14.745 27.1787C14.5738 27.35 14.4776 27.5823 14.4778 27.8245V32.4772C14.4778 32.9814 14.8865 33.3902 15.3908 33.3902C15.895 33.3902 16.3038 32.9814 16.3038 32.4772V27.8245C16.3039 27.5823 16.2078 27.35 16.0365 27.1787C15.8653 27.0074 15.633 26.9113 15.3908 26.9114Z" fill="white"/>
<path id="Shape" fill-rule="evenodd" clip-rule="evenodd" d="M31.2949 0.0840154L61.2939 13.9529C61.6169 14.1025 61.8237 14.426 61.8237 14.782C61.8237 15.1379 61.6169 15.4614 61.2939 15.611L50.4766 20.6122V34.5526C50.4756 37.5581 48.6015 40.2444 45.7811 41.2828V48.6125C46.7242 48.9861 47.3443 49.8968 47.3462 50.9112C47.3435 51.3406 47.228 51.7618 47.0113 52.1325L48.445 60.7613C48.4892 61.026 48.4146 61.2967 48.2411 61.5014C48.0676 61.7062 47.8128 61.8242 47.5445 61.824H42.1916C41.9233 61.8242 41.6685 61.7062 41.495 61.5014C41.3215 61.2967 41.2469 61.026 41.2911 60.7613L42.7248 52.1325C42.5082 51.7618 42.3927 51.3406 42.3899 50.9112C42.3918 49.8968 43.0119 48.9861 43.955 48.6125V41.9261L42.237 42.5266C34.9033 45.0834 26.9202 45.0834 19.5865 42.5266L16.1541 41.3266C13.2755 40.3196 11.3478 37.6033 11.3474 34.5536V20.6122L0.530071 15.611C0.207054 15.4614 0.000305176 15.1379 0.000305176 14.782C0.000305176 14.426 0.207054 14.1025 0.530071 13.9529L30.5291 0.0840154C30.772 -0.0281679 31.052 -0.0281679 31.2949 0.0840154ZM20.1917 40.8033C27.1342 43.2246 34.6919 43.2246 41.6344 40.8033L43.955 39.99V23.6272L31.2949 29.4825C31.0519 29.5945 30.7721 29.5945 30.5291 29.4825L13.1735 21.4584V34.5536C13.1733 36.8278 14.6113 38.8534 16.7582 39.6034L20.1917 40.8033ZM44.8686 51.5633C44.5086 51.563 44.2169 51.2712 44.2169 50.9112C44.2169 50.551 44.5089 50.259 44.8691 50.259C45.2293 50.259 45.5212 50.551 45.5212 50.9112C45.5207 51.2713 45.2287 51.563 44.8686 51.5633ZM44.3755 53.3398L43.269 59.998H46.4671L45.3606 53.3398C45.0355 53.4059 44.7006 53.4059 44.3755 53.3398ZM48.6505 34.5536C48.6495 36.5438 47.5442 38.3689 45.7811 39.2919V22.7831L48.6505 21.4563V34.5536ZM31.3336 13.9702L45.0507 21.1089L58.7354 14.782L30.912 1.91891L3.08859 14.782L30.912 27.6455L42.9559 22.0772L30.4904 15.5906C30.0543 15.352 29.889 14.8085 30.1185 14.3675C30.3479 13.9265 30.8879 13.7499 31.3336 13.9702Z" fill="white"/>
</g>
</svg>
