<svg width="83" height="86" viewBox="0 0 83 86" fill="none" xmlns="http://www.w3.org/2000/svg">
<g id="002-spaceship">
<path id="Shape" fill-rule="evenodd" clip-rule="evenodd" d="M64.3705 16.8264C66.5099 29.9811 60.3936 41.5608 53.353 50.3527C55.06 63.6453 49.3742 71.6332 47.5724 73.7805C47.2073 74.2151 46.5591 74.2718 46.1241 73.9072L37.408 66.5935L34.225 70.3869L33.4927 74.9698C33.4341 75.3352 33.1838 75.641 32.8371 75.7705C32.4905 75.9 32.101 75.8334 31.8171 75.5959L27.8438 72.2619C26.1587 73.4799 23.8599 73.3905 22.2744 72.0453L16.2717 67.0084C14.6716 65.6806 14.1844 63.4323 15.0913 61.5613L11.118 58.2273C10.8348 57.989 10.7016 57.617 10.7689 57.2531C10.8363 56.8892 11.0939 56.5896 11.4436 56.4684L15.8297 54.9514L19.0127 51.1581L10.2966 43.8444C9.862 43.4793 9.8053 42.8311 10.1699 42.3961C11.9717 40.2488 18.8509 33.2623 32.2302 32.6362C39.6661 24.1729 50.0094 16.1386 63.3418 15.9633C63.8509 15.9571 64.2881 16.324 64.3705 16.8264ZM20.5886 52.4804L17.8806 55.7076L33.1273 68.4966L35.8346 65.2702L29.9317 60.3171C29.1362 60.6159 28.3113 60.8295 27.4708 60.9544C27.1811 60.9962 26.8872 60.9126 26.663 60.7244C26.4388 60.5363 26.3054 60.2615 26.2963 59.9689C26.272 59.1195 26.3379 58.27 26.4928 57.4346L20.5886 52.4804ZM33.3663 55.4727C32.0696 57.0195 30.3319 58.134 28.3852 58.6675C28.5725 56.6577 29.3683 54.7529 30.6664 53.2073L39.6339 42.5202L42.3338 44.7857L33.3663 55.4727ZM38.762 62.3965C46.7191 55.211 65.2018 38.52 62.4723 18.044C41.8181 18.9087 28.593 40.0213 22.8997 49.111L22.7836 49.2962L22.7835 49.2964C22.4335 49.8543 22.1115 50.3677 21.8175 50.8285L27.1061 55.2662C27.5776 54.0379 28.2484 52.8958 29.0915 51.8857L38.7198 40.4112C39.0849 39.9766 39.733 39.9199 40.168 40.2845L44.4428 43.8715C44.8774 44.2366 44.9341 44.8847 44.5695 45.3197L34.9412 56.7943C34.093 57.7997 33.0849 58.6585 31.9573 59.336L37.2455 63.7733C37.6721 63.381 38.1509 62.9485 38.6741 62.4758L38.762 62.3965ZM30.372 34.8298C27.0207 39.0238 23.9429 43.4293 21.1576 48.0189C20.8222 48.5548 20.514 49.0454 20.2272 49.4933L12.4326 42.9529C14.6808 40.5843 20.3694 35.8254 30.372 34.8298ZM16.7756 62.9746C16.5698 63.8825 16.8847 64.8296 17.5932 65.4335L23.596 70.4704C24.3137 71.0633 25.3011 71.209 26.1595 70.8486L16.7756 62.9746ZM13.829 57.8183L16.216 56.9932L32.1463 70.3603L31.7482 72.8542L13.829 57.8183ZM40.14 63.9224C39.6651 64.3513 39.2308 64.7437 38.8344 65.1066L46.6312 71.6489C48.5734 69.0236 52.2713 62.5943 51.5147 52.5645C47.9704 56.5903 44.1711 60.3841 40.14 63.9224Z" fill="white"/>
<path id="Shape_2" fill-rule="evenodd" clip-rule="evenodd" d="M54.91 36.7432C52.6995 39.3775 48.7721 39.7211 46.1378 37.5107C43.506 35.299 43.1626 31.3737 45.3704 28.7386C47.5808 26.1043 51.5082 25.7607 54.1425 27.9711C56.7768 30.1815 57.1204 34.1089 54.91 36.7432ZM53.335 35.4217C54.8156 33.6572 54.5855 31.0266 52.821 29.546C51.0565 28.0655 48.4259 28.2956 46.9453 30.0601C45.4647 31.8246 45.6949 34.4552 47.4594 35.9358C49.2238 37.4163 51.8545 37.1862 53.335 35.4217Z" fill="white"/>
</g>
</svg>
