<svg width="67" height="62" viewBox="0 0 67 62" fill="none" xmlns="http://www.w3.org/2000/svg">
<g id="003-home">
<path id="Shape" fill-rule="evenodd" clip-rule="evenodd" d="M33.9833 0.313293L66.3598 28.3035L66.405 28.3235C66.6155 28.5065 66.7358 28.7747 66.7333 29.0554C66.7283 29.5868 66.2947 30.0129 65.7633 30.0079H58.1335V57.4016C58.1335 59.5221 56.414 61.2441 54.291 61.2441H12.4298C10.3068 61.2441 8.58729 59.5221 8.58729 57.4016V29.9879H0.970009C0.689279 29.9904 0.421083 29.8701 0.235601 29.6595C-0.112804 29.2585 -0.0701934 28.6519 0.328342 28.3035L32.7049 0.313293C33.0684 -0.0125529 33.6198 -0.0125529 33.9833 0.313293ZM24.5914 42.172V59.2965H42.0968V42.172C42.0968 41.7234 41.7309 41.3574 41.2822 41.3574H25.406C24.9573 41.3574 24.5914 41.7234 24.5914 42.172ZM56.1809 57.3765C56.1809 58.4368 55.3212 59.2965 54.2609 59.2965H44.0168V42.172C44.0168 40.6606 42.7936 39.4374 41.2822 39.4374H25.406C23.8971 39.4374 22.6714 40.6606 22.6714 42.172V59.2714H12.4298C11.367 59.2714 10.5073 58.4117 10.5073 57.3514V30.0079H56.1809V57.3765ZM33.3441 2.30597L3.53668 28.0854H63.1515L33.3441 2.30597Z" fill="white"/>
</g>
</svg>
