<svg width="22" height="13" viewBox="0 0 22 13" fill="none" xmlns="http://www.w3.org/2000/svg">
<path d="M10.7646 12.9452H12.0792C12.0792 12.9452 12.4766 12.8997 12.6787 12.6732C12.8658 12.4653 12.8589 12.0751 12.8589 12.0751C12.8589 12.0751 12.8327 10.248 13.6523 9.97882C14.4595 9.71394 15.4963 11.7447 16.595 12.5265C17.4256 13.1175 18.0568 12.988 18.0568 12.988L20.9953 12.9452C20.9953 12.9452 22.5327 12.847 21.8039 11.5952C21.7448 11.4926 21.379 10.6695 19.6189 8.97768C17.7762 7.20609 18.0238 7.49376 20.2432 4.43051C21.5949 2.56493 22.1353 1.42565 21.9662 0.938606C21.8053 0.474348 20.8111 0.596821 20.8111 0.596821L17.5053 0.616758C17.5053 0.616758 17.2606 0.582579 17.0777 0.695084C16.9003 0.806164 16.7862 1.0625 16.7862 1.0625C16.7862 1.0625 16.2623 2.50655 15.5637 3.73412C14.091 6.32457 13.501 6.46128 13.2604 6.30036C12.7007 5.92582 12.841 4.79366 12.841 3.99046C12.841 1.47977 13.2082 0.433048 12.1246 0.162469C11.7643 0.07275 11.5003 0.0129376 10.5803 0.00296885C9.4005 -0.00984809 8.4008 0.00724116 7.83563 0.293486C7.45885 0.484316 7.16871 0.910124 7.3461 0.934333C7.56474 0.96424 8.05977 1.07247 8.32242 1.44274C8.66207 1.91981 8.64969 2.99359 8.64969 2.99359C8.64969 2.99359 8.84496 5.94861 8.19453 6.31603C7.74763 6.56809 7.13571 6.05399 5.82248 3.70279C5.15006 2.49942 4.64127 1.16789 4.64127 1.16789C4.64127 1.16789 4.54364 0.920092 4.369 0.787651C4.15724 0.626727 3.86022 0.575459 3.86022 0.575459L0.716735 0.595396C0.716735 0.595396 0.245075 0.609637 0.0718122 0.821829C-0.0821991 1.01123 0.0594363 1.40144 0.0594363 1.40144C0.0594363 1.40144 2.52087 7.36417 5.30682 10.3705C7.86313 13.1261 10.7646 12.9452 10.7646 12.9452Z" fill="white"/>
</svg>
