<svg width="253" height="36" viewBox="0 0 253 36" fill="none" xmlns="http://www.w3.org/2000/svg">
<path fill-rule="evenodd" clip-rule="evenodd" d="M133.625 8.74536L132.781 10.8H130.727L135.148 0.167236H136.992L141.414 10.8H139.359L138.516 8.74536H133.625ZM3.92969 10.5344C3.4349 10.8678 2.88281 11.0344 2.27344 11.0344H1.53125V9.30786H1.91406C2.27344 9.30786 2.57552 9.23104 2.82031 9.07739C3.0651 8.92375 3.27604 8.66724 3.45312 8.30786L3.78125 7.59692L0.117188 0.175049H2.25781L4.77344 5.69849L7.20312 0.175049H9.34375L5.27344 8.79224C4.8724 9.62036 4.42448 10.2011 3.92969 10.5344ZM12.4297 7.60474V10.8H10.5625V2.76099H12.4297V5.87817H16.0547V2.76099H17.9297V10.8H16.0547V7.60474H12.4297ZM25.7344 5.81567H25.7422V10.8H27.6406V2.76099H25.9141L22.0391 7.74536H22.0312V2.76099H20.1406V10.8H21.8672L25.7344 5.81567ZM35.125 10.55C34.7083 10.7167 34.2578 10.8 33.7734 10.8H29.8516V2.7688H33.3906C33.9427 2.7688 34.4193 2.85734 34.8203 3.03442C35.2214 3.21151 35.5299 3.46672 35.7461 3.80005C35.9622 4.13338 36.0703 4.53442 36.0703 5.00317C36.0703 5.3313 35.974 5.64119 35.7812 5.93286C35.5885 6.22453 35.3594 6.42505 35.0938 6.53442C35.5 6.68026 35.8398 6.92375 36.1133 7.26489C36.3867 7.60604 36.5234 7.98755 36.5234 8.40942C36.5234 8.95109 36.3945 9.40161 36.1367 9.76099C35.8789 10.1204 35.5417 10.3834 35.125 10.55ZM33.3594 6.04224H31.7422V4.37036H33.3047C33.5859 4.37036 33.8112 4.44328 33.9805 4.58911C34.1497 4.73494 34.2344 4.93286 34.2344 5.18286C34.2344 5.44849 34.1549 5.65812 33.9961 5.81177C33.8372 5.96541 33.625 6.04224 33.3594 6.04224ZM31.7422 9.21411H33.6016C33.9245 9.21411 34.1797 9.13078 34.3672 8.96411C34.5547 8.79744 34.6484 8.57088 34.6484 8.28442C34.6484 7.99276 34.5586 7.76229 34.3789 7.59302C34.1992 7.42375 33.9479 7.33911 33.625 7.33911H31.7422V9.21411ZM41.7656 11.0422C42.4062 11.0422 42.9935 10.9159 43.5273 10.6633C44.0612 10.4107 44.5052 10.0735 44.8594 9.65161C45.2135 9.22974 45.4609 8.7714 45.6016 8.27661H43.5391C43.3984 8.62557 43.1784 8.8925 42.8789 9.07739C42.5794 9.26229 42.1953 9.35474 41.7266 9.35474C41.3568 9.35474 41.0143 9.27271 40.6992 9.10864C40.3841 8.94458 40.1211 8.7063 39.9102 8.3938C39.6992 8.0813 39.5625 7.71151 39.5 7.28442H45.7734C45.7995 7.03442 45.8125 6.82088 45.8125 6.6438C45.8125 5.90422 45.6419 5.22062 45.3008 4.59302C44.9596 3.96541 44.4818 3.46411 43.8672 3.08911C43.2526 2.71411 42.5521 2.52661 41.7656 2.52661C40.9792 2.52661 40.2682 2.71672 39.6328 3.09692C38.9974 3.47713 38.5 3.99276 38.1406 4.6438C37.7812 5.29484 37.6016 6.00838 37.6016 6.78442C37.6016 7.56047 37.7812 8.27401 38.1406 8.92505C38.5 9.57609 38.9974 10.0917 39.6328 10.4719C40.2682 10.8521 40.9792 11.0422 41.7656 11.0422ZM39.5781 5.82349H43.8828C43.8568 5.52661 43.7448 5.25187 43.5469 4.99927C43.349 4.74666 43.0924 4.54614 42.7773 4.39771C42.4622 4.24927 42.1224 4.17505 41.7578 4.17505C41.2526 4.17505 40.8008 4.31437 40.4023 4.59302C40.0039 4.87166 39.7292 5.28182 39.5781 5.82349ZM49.2422 13.5422V10.4329L49.2031 9.50317C49.474 9.97192 49.8516 10.3456 50.3359 10.6243C50.8203 10.9029 51.3516 11.0422 51.9297 11.0422C52.6641 11.0422 53.3268 10.8521 53.918 10.4719C54.5091 10.0917 54.974 9.57739 55.3125 8.92896C55.651 8.28052 55.8203 7.56567 55.8203 6.78442C55.8203 6.00838 55.6523 5.29614 55.3164 4.64771C54.9805 3.99927 54.5143 3.48494 53.918 3.10474C53.3216 2.72453 52.651 2.53442 51.9062 2.53442C51.3333 2.53442 50.8034 2.67635 50.3164 2.96021C49.8294 3.24406 49.4401 3.63078 49.1484 4.12036V2.7688H47.3516V13.5422H49.2422ZM50.4023 8.97583C50.7643 9.19198 51.1589 9.30005 51.5859 9.30005C52.013 9.30005 52.4062 9.19718 52.7656 8.99146C53.125 8.78573 53.4115 8.49276 53.625 8.11255C53.8385 7.73234 53.9453 7.28963 53.9453 6.78442C53.9453 6.29484 53.8398 5.85994 53.6289 5.47974C53.418 5.09953 53.1315 4.80396 52.7695 4.59302C52.4076 4.38208 52.0104 4.27661 51.5781 4.27661C51.151 4.27661 50.7565 4.38729 50.3945 4.60864C50.0326 4.83 49.7461 5.13338 49.5352 5.5188C49.3242 5.90422 49.2188 6.32609 49.2188 6.78442C49.2188 7.26359 49.3255 7.69458 49.5391 8.07739C49.7526 8.46021 50.0404 8.75968 50.4023 8.97583ZM61.0469 11.0422C61.7188 11.0422 62.3333 10.9081 62.8906 10.6399C63.4479 10.3717 63.9102 9.99666 64.2773 9.51489C64.6445 9.03312 64.8984 8.48234 65.0391 7.86255H63.1172C62.9505 8.34172 62.6849 8.69979 62.3203 8.93677C61.9557 9.17375 61.5339 9.29224 61.0547 9.29224C60.6589 9.29224 60.2865 9.19067 59.9375 8.98755C59.5885 8.78442 59.3073 8.49406 59.0938 8.11646C58.8802 7.73885 58.7734 7.29484 58.7734 6.78442C58.7734 6.27922 58.8802 5.83651 59.0938 5.4563C59.3073 5.07609 59.5885 4.78573 59.9375 4.58521C60.2865 4.38468 60.6589 4.28442 61.0547 4.28442C61.5286 4.28442 61.9466 4.3964 62.3086 4.62036C62.6706 4.84432 62.9401 5.17244 63.1172 5.60474H65.0469C64.8958 5.01099 64.6354 4.48104 64.2656 4.01489C63.8958 3.54875 63.4349 3.18416 62.8828 2.92114C62.3307 2.65812 61.7188 2.52661 61.0469 2.52661C60.2656 2.52661 59.5586 2.71802 58.9258 3.10083C58.293 3.48364 57.7969 4.00057 57.4375 4.65161C57.0781 5.30265 56.8984 6.01359 56.8984 6.78442C56.8984 7.56047 57.0781 8.27401 57.4375 8.92505C57.7969 9.57609 58.293 10.0917 58.9258 10.4719C59.5586 10.8521 60.2656 11.0422 61.0469 11.0422ZM72.1719 5.81567H72.1641L68.2969 10.8H66.5703V2.76099H68.4609V7.74536H68.4688L72.3438 2.76099H74.0703V10.8H72.1719V5.81567ZM80.7969 10.8V9.22974H80.4688C80.0781 9.22974 79.8034 9.11906 79.6445 8.89771C79.4857 8.67635 79.4062 8.3339 79.4062 7.87036V4.34692H81.5703V2.76099H75.2578V4.34692H77.5156V7.88599C77.5156 8.85474 77.7331 9.5826 78.168 10.0696C78.6029 10.5566 79.25 10.8 80.1094 10.8H80.7969ZM88.4648 10.6633C87.931 10.9159 87.3438 11.0422 86.7031 11.0422C85.9167 11.0422 85.2057 10.8521 84.5703 10.4719C83.9349 10.0917 83.4375 9.57609 83.0781 8.92505C82.7188 8.27401 82.5391 7.56047 82.5391 6.78442C82.5391 6.00838 82.7188 5.29484 83.0781 4.6438C83.4375 3.99276 83.9349 3.47713 84.5703 3.09692C85.2057 2.71672 85.9167 2.52661 86.7031 2.52661C87.4896 2.52661 88.1901 2.71411 88.8047 3.08911C89.4193 3.46411 89.8971 3.96541 90.2383 4.59302C90.5794 5.22062 90.75 5.90422 90.75 6.6438C90.75 6.82088 90.737 7.03442 90.7109 7.28442H84.4375C84.5 7.71151 84.6367 8.0813 84.8477 8.3938C85.0586 8.7063 85.3216 8.94458 85.6367 9.10864C85.9518 9.27271 86.2943 9.35474 86.6641 9.35474C87.1328 9.35474 87.5169 9.26229 87.8164 9.07739C88.1159 8.8925 88.3359 8.62557 88.4766 8.27661H90.5391C90.3984 8.7714 90.151 9.22974 89.7969 9.65161C89.4427 10.0735 88.9987 10.4107 88.4648 10.6633ZM88.8203 5.82349H84.5156C84.6667 5.28182 84.9414 4.87166 85.3398 4.59302C85.7383 4.31437 86.1901 4.17505 86.6953 4.17505C87.0599 4.17505 87.3997 4.24927 87.7148 4.39771C88.0299 4.54614 88.2865 4.74666 88.4844 4.99927C88.6823 5.25187 88.7943 5.52661 88.8203 5.82349ZM96.8047 9.22974V10.8H96.1172C95.2578 10.8 94.6107 10.5566 94.1758 10.0696C93.7409 9.5826 93.5234 8.85474 93.5234 7.88599V4.34692H91.2656V2.76099H97.5781V4.34692H95.4141V7.87036C95.4141 8.3339 95.4935 8.67635 95.6523 8.89771C95.8112 9.11906 96.0859 9.22974 96.4766 9.22974H96.8047ZM108.609 5.81567H108.617V10.8H110.516V2.76099H108.789L104.914 7.74536H104.906V2.76099H103.016V10.8H104.742L108.609 5.81567ZM114.609 5.74536V10.8H112.727V2.76099H114.453L117.055 6.17505H117.062L119.711 2.76099H121.422V10.8H119.547V5.7688H119.531L117.516 8.5813H116.609L114.617 5.74536H114.609ZM124.633 10.9954C124.961 10.9954 125.229 10.8964 125.438 10.6985C125.646 10.5006 125.75 10.2532 125.75 9.9563C125.75 9.7688 125.703 9.59562 125.609 9.43677C125.516 9.27791 125.384 9.15161 125.215 9.05786C125.046 8.96411 124.854 8.91724 124.641 8.91724C124.422 8.91724 124.228 8.96411 124.059 9.05786C123.889 9.15161 123.759 9.27791 123.668 9.43677C123.577 9.59562 123.531 9.7688 123.531 9.9563C123.531 10.1438 123.578 10.317 123.672 10.4758C123.766 10.6347 123.896 10.761 124.062 10.8547C124.229 10.9485 124.419 10.9954 124.633 10.9954ZM137.852 7.12036H134.289L136 2.93286L136.062 2.67505H136.086L136.133 2.93286L137.852 7.12036ZM144.398 10.6985C144.19 10.8964 143.922 10.9954 143.594 10.9954C143.38 10.9954 143.19 10.9485 143.023 10.8547C142.857 10.761 142.727 10.6347 142.633 10.4758C142.539 10.317 142.492 10.1438 142.492 9.9563C142.492 9.7688 142.538 9.59562 142.629 9.43677C142.72 9.27791 142.85 9.15161 143.02 9.05786C143.189 8.96411 143.383 8.91724 143.602 8.91724C143.815 8.91724 144.007 8.96411 144.176 9.05786C144.345 9.15161 144.477 9.27791 144.57 9.43677C144.664 9.59562 144.711 9.7688 144.711 9.9563C144.711 10.2532 144.607 10.5006 144.398 10.6985ZM152.828 10.8V6.31567H158.188V10.8H160.141V0.175049H158.188V4.5813H152.828V0.175049H150.883V10.8H152.828ZM164.312 10.6985C164.104 10.8964 163.836 10.9954 163.508 10.9954C163.294 10.9954 163.104 10.9485 162.938 10.8547C162.771 10.761 162.641 10.6347 162.547 10.4758C162.453 10.317 162.406 10.1438 162.406 9.9563C162.406 9.7688 162.452 9.59562 162.543 9.43677C162.634 9.27791 162.764 9.15161 162.934 9.05786C163.103 8.96411 163.297 8.91724 163.516 8.91724C163.729 8.91724 163.921 8.96411 164.09 9.05786C164.259 9.15161 164.391 9.27791 164.484 9.43677C164.578 9.59562 164.625 9.7688 164.625 9.9563C164.625 10.2532 164.521 10.5006 164.312 10.6985ZM172.742 10.8V6.46411H173.844L176.844 10.8H179.242L175.398 5.30005L179.133 0.175049H176.789L173.844 4.37036H172.742V0.175049H170.797V10.8H172.742ZM186.293 10.4758C185.645 10.8534 184.917 11.0422 184.109 11.0422C183.312 11.0422 182.592 10.8521 181.949 10.4719C181.306 10.0917 180.802 9.57739 180.438 8.92896C180.073 8.28052 179.891 7.56567 179.891 6.78442C179.891 6.00838 180.073 5.29484 180.438 4.6438C180.802 3.99276 181.306 3.47713 181.949 3.09692C182.592 2.71672 183.315 2.52661 184.117 2.52661C184.924 2.52661 185.651 2.71672 186.297 3.09692C186.943 3.47713 187.448 3.99276 187.812 4.6438C188.177 5.29484 188.359 6.00838 188.359 6.78442C188.359 7.56567 188.177 8.28182 187.812 8.93286C187.448 9.5839 186.941 10.0982 186.293 10.4758ZM184.125 9.28442C183.677 9.28442 183.275 9.17765 182.918 8.96411C182.561 8.75057 182.28 8.45369 182.074 8.07349C181.868 7.69328 181.766 7.26359 181.766 6.78442C181.766 6.31047 181.868 5.88208 182.074 5.49927C182.28 5.11646 182.562 4.81698 182.922 4.60083C183.281 4.38468 183.682 4.27661 184.125 4.27661C184.568 4.27661 184.969 4.38468 185.328 4.60083C185.688 4.81698 185.97 5.11646 186.176 5.49927C186.382 5.88208 186.484 6.31047 186.484 6.78442C186.484 7.26359 186.382 7.69328 186.176 8.07349C185.97 8.45369 185.689 8.75057 185.332 8.96411C184.975 9.17765 184.573 9.28442 184.125 9.28442ZM195.43 10.6399C194.872 10.9081 194.258 11.0422 193.586 11.0422C192.805 11.0422 192.098 10.8521 191.465 10.4719C190.832 10.0917 190.336 9.57609 189.977 8.92505C189.617 8.27401 189.438 7.56047 189.438 6.78442C189.438 6.01359 189.617 5.30265 189.977 4.65161C190.336 4.00057 190.832 3.48364 191.465 3.10083C192.098 2.71802 192.805 2.52661 193.586 2.52661C194.258 2.52661 194.87 2.65812 195.422 2.92114C195.974 3.18416 196.435 3.54875 196.805 4.01489C197.174 4.48104 197.435 5.01099 197.586 5.60474H195.656C195.479 5.17244 195.21 4.84432 194.848 4.62036C194.486 4.3964 194.068 4.28442 193.594 4.28442C193.198 4.28442 192.826 4.38468 192.477 4.58521C192.128 4.78573 191.846 5.07609 191.633 5.4563C191.419 5.83651 191.312 6.27922 191.312 6.78442C191.312 7.29484 191.419 7.73885 191.633 8.11646C191.846 8.49406 192.128 8.78442 192.477 8.98755C192.826 9.19067 193.198 9.29224 193.594 9.29224C194.073 9.29224 194.495 9.17375 194.859 8.93677C195.224 8.69979 195.49 8.34172 195.656 7.86255H197.578C197.438 8.48234 197.184 9.03312 196.816 9.51489C196.449 9.99666 195.987 10.3717 195.43 10.6399ZM209.57 10.7375V2.74536H207.672V10.7375H209.57ZM205.012 10.4797C204.582 10.6933 204.117 10.8 203.617 10.8H199.109V2.7688H200.992V5.48755H203.648C204.143 5.48755 204.603 5.59172 205.027 5.80005C205.452 6.00838 205.793 6.31307 206.051 6.71411C206.309 7.11515 206.438 7.58911 206.438 8.13599C206.438 8.67765 206.307 9.15031 206.047 9.55396C205.786 9.9576 205.441 10.2662 205.012 10.4797ZM203.562 9.18286H200.984V7.10474H203.57C203.857 7.10474 204.098 7.205 204.293 7.40552C204.488 7.60604 204.586 7.84953 204.586 8.13599C204.586 8.32349 204.54 8.49666 204.449 8.65552C204.358 8.81437 204.234 8.94198 204.078 9.03833C203.922 9.13468 203.75 9.18286 203.562 9.18286ZM213.68 4.36255V10.8H211.789V2.7688H217.133V4.36255H213.68ZM224.078 5.81567H224.086V10.8H225.984V2.76099H224.258L220.383 7.74536H220.375V2.76099H218.484V10.8H220.211L224.078 5.81567ZM230.062 7.60474V10.8H228.195V2.76099H230.062V5.87817H233.688V2.76099H235.562V10.8H233.688V7.60474H230.062ZM240.984 11.0422C241.635 11.0422 242.215 10.9016 242.723 10.6204C243.23 10.3391 243.615 9.94849 243.875 9.44849V10.8H245.672V2.7688H243.875V4.12817C243.615 3.62817 243.23 3.23625 242.723 2.95239C242.215 2.66854 241.633 2.52661 240.977 2.52661C240.273 2.52661 239.634 2.71802 239.059 3.10083C238.483 3.48364 238.03 4.00057 237.699 4.65161C237.368 5.30265 237.203 6.01359 237.203 6.78442C237.203 7.56047 237.367 8.27401 237.695 8.92505C238.023 9.57609 238.477 10.0917 239.055 10.4719C239.633 10.8521 240.276 11.0422 240.984 11.0422ZM240.258 8.98755C240.617 9.19067 241.01 9.29224 241.438 9.29224C241.87 9.29224 242.267 9.18156 242.629 8.96021C242.991 8.73885 243.276 8.43677 243.484 8.05396C243.693 7.67114 243.797 7.24797 243.797 6.78442C243.797 6.32609 243.691 5.90552 243.48 5.52271C243.27 5.13989 242.984 4.83651 242.625 4.61255C242.266 4.38859 241.87 4.27661 241.438 4.27661C241.005 4.27661 240.609 4.38208 240.25 4.59302C239.891 4.80396 239.605 5.09953 239.395 5.47974C239.184 5.85994 239.078 6.29484 239.078 6.78442C239.078 7.28963 239.185 7.73234 239.398 8.11255C239.612 8.49276 239.898 8.78442 240.258 8.98755Z" fill="#1B1B1B"/>
<path fill-rule="evenodd" clip-rule="evenodd" d="M147.109 20.6157C146.969 21.9491 146.177 22.6157 144.734 22.6157C143.339 22.6157 142.552 21.9491 142.375 20.6157H143.82C143.862 20.8241 143.911 20.9907 143.969 21.1157C144.026 21.2407 144.116 21.3371 144.238 21.4048C144.361 21.4725 144.526 21.5063 144.734 21.5063C144.948 21.5063 145.115 21.4725 145.234 21.4048C145.354 21.3371 145.444 21.2407 145.504 21.1157C145.564 20.9907 145.612 20.8241 145.648 20.6157H147.109ZM5.4375 31.6001V22.7095H8.60156V20.9751H0.335938V22.7095H3.5V31.6001H5.4375ZM13.6406 31.8423C14.2812 31.8423 14.8685 31.716 15.4023 31.4634C15.9362 31.2108 16.3802 30.8735 16.7344 30.4517C17.0885 30.0298 17.3359 29.5715 17.4766 29.0767H15.4141C15.2734 29.4256 15.0534 29.6925 14.7539 29.8774C14.4544 30.0623 14.0703 30.1548 13.6016 30.1548C13.2318 30.1548 12.8893 30.0728 12.5742 29.9087C12.2591 29.7446 11.9961 29.5063 11.7852 29.1938C11.5742 28.8813 11.4375 28.5116 11.375 28.0845H17.6484C17.6745 27.8345 17.6875 27.6209 17.6875 27.4438C17.6875 26.7043 17.5169 26.0207 17.1758 25.3931C16.8346 24.7655 16.3568 24.2642 15.7422 23.8892C15.1276 23.5142 14.4271 23.3267 13.6406 23.3267C12.8542 23.3267 12.1432 23.5168 11.5078 23.897C10.8724 24.2772 10.375 24.7928 10.0156 25.4438C9.65625 26.0949 9.47656 26.8084 9.47656 27.5845C9.47656 28.3605 9.65625 29.0741 10.0156 29.7251C10.375 30.3761 10.8724 30.8918 11.5078 31.272C12.1432 31.6522 12.8542 31.8423 13.6406 31.8423ZM11.4531 26.6235H15.7578C15.7318 26.3267 15.6198 26.0519 15.4219 25.7993C15.224 25.5467 14.9674 25.3462 14.6523 25.1978C14.3372 25.0493 13.9974 24.9751 13.6328 24.9751C13.1276 24.9751 12.6758 25.1144 12.2773 25.3931C11.8789 25.6717 11.6042 26.0819 11.4531 26.6235ZM20.5078 31.6001L22.2734 28.7798L24.0312 31.6001H26.2734L23.6094 27.4595L26.1562 23.5688H23.9453L22.2969 26.2095H22.2891L20.6406 23.5688H18.4219L20.9766 27.4595L18.3203 31.6001H20.5078ZM29.4531 28.4048V31.6001H27.5859V23.561H29.4531V26.6782H33.0781V23.561H34.9531V31.6001H33.0781V28.4048H29.4531ZM40.8125 31.8423C41.6198 31.8423 42.3477 31.6535 42.9961 31.2759C43.6445 30.8983 44.151 30.384 44.5156 29.7329C44.8802 29.0819 45.0625 28.3657 45.0625 27.5845C45.0625 26.8084 44.8802 26.0949 44.5156 25.4438C44.151 24.7928 43.6458 24.2772 43 23.897C42.3542 23.5168 41.6276 23.3267 40.8203 23.3267C40.0182 23.3267 39.2956 23.5168 38.6523 23.897C38.0091 24.2772 37.5052 24.7928 37.1406 25.4438C36.776 26.0949 36.5938 26.8084 36.5938 27.5845C36.5938 28.3657 36.776 29.0806 37.1406 29.729C37.5052 30.3774 38.0091 30.8918 38.6523 31.272C39.2956 31.6522 40.0156 31.8423 40.8125 31.8423ZM39.6211 29.7642C39.9779 29.9777 40.3802 30.0845 40.8281 30.0845C41.276 30.0845 41.6784 29.9777 42.0352 29.7642C42.3919 29.5506 42.6732 29.2537 42.8789 28.8735C43.0846 28.4933 43.1875 28.0636 43.1875 27.5845C43.1875 27.1105 43.0846 26.6821 42.8789 26.2993C42.6732 25.9165 42.3906 25.617 42.0312 25.4009C41.6719 25.1847 41.2708 25.0767 40.8281 25.0767C40.3854 25.0767 39.9844 25.1847 39.625 25.4009C39.2656 25.617 38.9831 25.9165 38.7773 26.2993C38.5716 26.6821 38.4688 27.1105 38.4688 27.5845C38.4688 28.0636 38.5716 28.4933 38.7773 28.8735C38.9831 29.2537 39.2643 29.5506 39.6211 29.7642ZM46.4844 31.6001C46.9844 31.6001 47.4414 31.4972 47.8555 31.2915C48.2695 31.0858 48.599 30.7733 48.8438 30.354C49.0885 29.9347 49.2109 29.4178 49.2109 28.8032V25.1626H52.8047V31.6001H54.7031V23.5688H47.3203V28.7173C47.3203 29.1287 47.2396 29.4451 47.0781 29.6665C46.9167 29.8879 46.6797 29.9985 46.3672 29.9985H46.0234V31.6001H46.4844ZM62.7461 31.2759C62.0977 31.6535 61.3698 31.8423 60.5625 31.8423C59.7656 31.8423 59.0456 31.6522 58.4023 31.272C57.7591 30.8918 57.2552 30.3774 56.8906 29.729C56.526 29.0806 56.3438 28.3657 56.3438 27.5845C56.3438 26.8084 56.526 26.0949 56.8906 25.4438C57.2552 24.7928 57.7591 24.2772 58.4023 23.897C59.0456 23.5168 59.7682 23.3267 60.5703 23.3267C61.3776 23.3267 62.1042 23.5168 62.75 23.897C63.3958 24.2772 63.901 24.7928 64.2656 25.4438C64.6302 26.0949 64.8125 26.8084 64.8125 27.5845C64.8125 28.3657 64.6302 29.0819 64.2656 29.7329C63.901 30.384 63.3945 30.8983 62.7461 31.2759ZM60.5781 30.0845C60.1302 30.0845 59.7279 29.9777 59.3711 29.7642C59.0143 29.5506 58.7331 29.2537 58.5273 28.8735C58.3216 28.4933 58.2188 28.0636 58.2188 27.5845C58.2188 27.1105 58.3216 26.6821 58.5273 26.2993C58.7331 25.9165 59.0156 25.617 59.375 25.4009C59.7344 25.1847 60.1354 25.0767 60.5781 25.0767C61.0208 25.0767 61.4219 25.1847 61.7812 25.4009C62.1406 25.617 62.4232 25.9165 62.6289 26.2993C62.8346 26.6821 62.9375 27.1105 62.9375 27.5845C62.9375 28.0636 62.8346 28.4933 62.6289 28.8735C62.4232 29.2537 62.1419 29.5506 61.7852 29.7642C61.4284 29.9777 61.026 30.0845 60.5781 30.0845ZM68.3516 25.1626V31.6001H66.4609V23.5688H71.8047V25.1626H68.3516ZM74.8828 31.6001L78.75 26.6157H78.7578V31.6001H80.6562V23.561H78.9297L75.0547 28.5454H75.0469V23.561H73.1562V31.6001H74.8828ZM88.4609 26.6157L84.5938 31.6001H82.8672V23.561H84.7578V28.5454H84.7656L88.6406 23.561H90.3672V31.6001H88.4688V26.6157H88.4609ZM93.5703 31.7954C93.8984 31.7954 94.1667 31.6965 94.375 31.4985C94.5833 31.3006 94.6875 31.0532 94.6875 30.7563C94.6875 30.5688 94.6406 30.3957 94.5469 30.2368C94.4531 30.078 94.3216 29.9517 94.1523 29.8579C93.9831 29.7642 93.7917 29.7173 93.5781 29.7173C93.3594 29.7173 93.1654 29.7642 92.9961 29.8579C92.8268 29.9517 92.6966 30.078 92.6055 30.2368C92.5143 30.3957 92.4688 30.5688 92.4688 30.7563C92.4688 30.9438 92.5156 31.117 92.6094 31.2759C92.7031 31.4347 92.8333 31.561 93 31.6548C93.1667 31.7485 93.3568 31.7954 93.5703 31.7954ZM102.141 31.6001V33.3501H100.203V29.8657H101.016C101.328 29.5584 101.615 29.1183 101.875 28.5454C102.135 27.9725 102.35 27.2772 102.52 26.4595C102.689 25.6418 102.797 24.7303 102.844 23.7251L102.969 20.9751H109.977V29.8657H111.062V33.3501H109.125V31.6001H102.141ZM108.039 29.8657H102.992C103.451 29.3657 103.824 28.6951 104.113 27.854C104.402 27.0129 104.589 25.8631 104.672 24.4048L104.781 22.7095H108.039V29.8657ZM118.578 26.6157L114.711 31.6001H112.984V23.561H114.875V28.5454H114.883L118.758 23.561H120.484V31.6001H118.586V26.6157H118.578ZM125.703 31.8501C126.823 31.8501 127.69 31.6405 128.305 31.2212C128.919 30.8019 129.227 30.1574 129.227 29.2876C129.227 28.9595 129.148 28.6626 128.992 28.397C128.836 28.1313 128.624 27.9139 128.355 27.7446C128.087 27.5754 127.786 27.4621 127.453 27.4048C127.75 27.3527 128.021 27.2433 128.266 27.0767C128.51 26.91 128.704 26.7043 128.848 26.4595C128.991 26.2147 129.062 25.9517 129.062 25.6704C129.062 25.1704 128.923 24.7446 128.645 24.3931C128.366 24.0415 127.978 23.7759 127.48 23.5962C126.983 23.4165 126.409 23.3267 125.758 23.3267C125.044 23.3267 124.427 23.4556 123.906 23.7134C123.385 23.9712 122.987 24.3306 122.711 24.7915C122.435 25.2524 122.292 25.7876 122.281 26.397H124.062C124.078 25.9282 124.237 25.5832 124.539 25.3618C124.841 25.1405 125.229 25.0298 125.703 25.0298C126.234 25.0298 126.617 25.1027 126.852 25.2485C127.086 25.3944 127.203 25.5923 127.203 25.8423C127.203 26.035 127.138 26.2056 127.008 26.354C126.878 26.5024 126.701 26.6183 126.477 26.7017C126.253 26.785 126.008 26.8267 125.742 26.8267H124.648V28.1938H125.742C126.221 28.1938 126.599 28.2811 126.875 28.4556C127.151 28.63 127.289 28.8709 127.289 29.1782C127.289 29.4803 127.145 29.7173 126.855 29.8892C126.566 30.061 126.161 30.147 125.641 30.147C125.182 30.147 124.794 30.0324 124.477 29.8032C124.159 29.5741 123.982 29.2485 123.945 28.8267H122.125C122.167 29.3996 122.336 29.9152 122.633 30.3735C122.93 30.8319 123.341 31.1925 123.867 31.4556C124.393 31.7186 125.005 31.8501 125.703 31.8501ZM135.824 31.4204C135.316 31.7017 134.737 31.8423 134.086 31.8423C133.378 31.8423 132.734 31.6522 132.156 31.272C131.578 30.8918 131.125 30.3761 130.797 29.7251C130.469 29.0741 130.305 28.3605 130.305 27.5845C130.305 26.8136 130.47 26.1027 130.801 25.4517C131.132 24.8006 131.585 24.2837 132.16 23.9009C132.736 23.5181 133.375 23.3267 134.078 23.3267C134.734 23.3267 135.316 23.4686 135.824 23.7524C136.332 24.0363 136.716 24.4282 136.977 24.9282V23.5688H138.773V31.6001H136.977V30.2485C136.716 30.7485 136.332 31.1392 135.824 31.4204ZM134.539 30.0923C134.112 30.0923 133.719 29.9907 133.359 29.7876C133 29.5845 132.714 29.2928 132.5 28.9126C132.286 28.5324 132.18 28.0897 132.18 27.5845C132.18 27.0949 132.285 26.66 132.496 26.2798C132.707 25.8996 132.992 25.604 133.352 25.3931C133.711 25.1821 134.107 25.0767 134.539 25.0767C134.971 25.0767 135.367 25.1886 135.727 25.4126C136.086 25.6366 136.371 25.9399 136.582 26.3228C136.793 26.7056 136.898 27.1261 136.898 27.5845C136.898 28.048 136.794 28.4712 136.586 28.854C136.378 29.2368 136.092 29.5389 135.73 29.7603C135.368 29.9816 134.971 30.0923 134.539 30.0923ZM142.719 31.6001L146.586 26.6157H146.594V31.6001H148.492V23.561H146.766L142.891 28.5454H142.883V23.561H140.992V31.6001H142.719ZM152.57 28.4048V31.6001H150.703V23.561H152.57V26.6782H156.195V23.561H158.07V31.6001H156.195V28.4048H152.57ZM161.273 31.7954C161.602 31.7954 161.87 31.6965 162.078 31.4985C162.286 31.3006 162.391 31.0532 162.391 30.7563C162.391 30.5688 162.344 30.3957 162.25 30.2368C162.156 30.078 162.025 29.9517 161.855 29.8579C161.686 29.7642 161.495 29.7173 161.281 29.7173C161.062 29.7173 160.868 29.7642 160.699 29.8579C160.53 29.9517 160.4 30.078 160.309 30.2368C160.217 30.3957 160.172 30.5688 160.172 30.7563C160.172 30.9438 160.219 31.117 160.312 31.2759C160.406 31.4347 160.536 31.561 160.703 31.6548C160.87 31.7485 161.06 31.7954 161.273 31.7954ZM176.016 24.1704L170.227 31.6001H168.562V20.9751H170.5V28.4126L176.289 20.9751H177.961V31.6001H176.016V24.1704ZM183.914 31.8423C184.586 31.8423 185.201 31.7082 185.758 31.4399C186.315 31.1717 186.777 30.7967 187.145 30.3149C187.512 29.8332 187.766 29.2824 187.906 28.6626H185.984C185.818 29.1418 185.552 29.4998 185.188 29.7368C184.823 29.9738 184.401 30.0923 183.922 30.0923C183.526 30.0923 183.154 29.9907 182.805 29.7876C182.456 29.5845 182.174 29.2941 181.961 28.9165C181.747 28.5389 181.641 28.0949 181.641 27.5845C181.641 27.0793 181.747 26.6366 181.961 26.2563C182.174 25.8761 182.456 25.5858 182.805 25.3853C183.154 25.1847 183.526 25.0845 183.922 25.0845C184.396 25.0845 184.814 25.1965 185.176 25.4204C185.538 25.6444 185.807 25.9725 185.984 26.4048H187.914C187.763 25.811 187.503 25.2811 187.133 24.8149C186.763 24.3488 186.302 23.9842 185.75 23.7212C185.198 23.4582 184.586 23.3267 183.914 23.3267C183.133 23.3267 182.426 23.5181 181.793 23.9009C181.16 24.2837 180.664 24.8006 180.305 25.4517C179.945 26.1027 179.766 26.8136 179.766 27.5845C179.766 28.3605 179.945 29.0741 180.305 29.7251C180.664 30.3761 181.16 30.8918 181.793 31.272C182.426 31.6522 183.133 31.8423 183.914 31.8423ZM191.328 28.4282V31.6001H189.438V23.5688H191.328V26.5454H192.344L194.297 23.5688H196.523L193.867 27.3423L196.758 31.6001H194.5L192.469 28.4282H191.328ZM198.578 34.3423C199.198 34.3423 199.707 34.2629 200.105 34.104C200.504 33.9451 200.859 33.6587 201.172 33.2446C201.484 32.8306 201.799 32.2225 202.117 31.4204L205.25 23.5688L203.234 23.5767L201.375 28.436L201.164 29.2563L200.961 28.4282L199.07 23.5688H197.078L200.156 31.2251L200.062 31.4985C199.943 31.811 199.822 32.0584 199.699 32.2407C199.577 32.423 199.426 32.5584 199.246 32.647C199.066 32.7355 198.839 32.7798 198.562 32.7798H197.227V34.3423H198.578ZM211.852 31.4399C211.294 31.7082 210.68 31.8423 210.008 31.8423C209.227 31.8423 208.52 31.6522 207.887 31.272C207.254 30.8918 206.758 30.3761 206.398 29.7251C206.039 29.0741 205.859 28.3605 205.859 27.5845C205.859 26.8136 206.039 26.1027 206.398 25.4517C206.758 24.8006 207.254 24.2837 207.887 23.9009C208.52 23.5181 209.227 23.3267 210.008 23.3267C210.68 23.3267 211.292 23.4582 211.844 23.7212C212.396 23.9842 212.857 24.3488 213.227 24.8149C213.596 25.2811 213.857 25.811 214.008 26.4048H212.078C211.901 25.9725 211.632 25.6444 211.27 25.4204C210.908 25.1965 210.49 25.0845 210.016 25.0845C209.62 25.0845 209.247 25.1847 208.898 25.3853C208.549 25.5858 208.268 25.8761 208.055 26.2563C207.841 26.6366 207.734 27.0793 207.734 27.5845C207.734 28.0949 207.841 28.5389 208.055 28.9165C208.268 29.2941 208.549 29.5845 208.898 29.7876C209.247 29.9907 209.62 30.0923 210.016 30.0923C210.495 30.0923 210.917 29.9738 211.281 29.7368C211.646 29.4998 211.911 29.1418 212.078 28.6626H214C213.859 29.2824 213.605 29.8332 213.238 30.3149C212.871 30.7967 212.409 31.1717 211.852 31.4399ZM219.109 31.8423C219.781 31.8423 220.396 31.7082 220.953 31.4399C221.51 31.1717 221.973 30.7967 222.34 30.3149C222.707 29.8332 222.961 29.2824 223.102 28.6626H221.18C221.013 29.1418 220.747 29.4998 220.383 29.7368C220.018 29.9738 219.596 30.0923 219.117 30.0923C218.721 30.0923 218.349 29.9907 218 29.7876C217.651 29.5845 217.37 29.2941 217.156 28.9165C216.943 28.5389 216.836 28.0949 216.836 27.5845C216.836 27.0793 216.943 26.6366 217.156 26.2563C217.37 25.8761 217.651 25.5858 218 25.3853C218.349 25.1847 218.721 25.0845 219.117 25.0845C219.591 25.0845 220.009 25.1965 220.371 25.4204C220.733 25.6444 221.003 25.9725 221.18 26.4048H223.109C222.958 25.811 222.698 25.2811 222.328 24.8149C221.958 24.3488 221.497 23.9842 220.945 23.7212C220.393 23.4582 219.781 23.3267 219.109 23.3267C218.328 23.3267 217.621 23.5181 216.988 23.9009C216.355 24.2837 215.859 24.8006 215.5 25.4517C215.141 26.1027 214.961 26.8136 214.961 27.5845C214.961 28.3605 215.141 29.0741 215.5 29.7251C215.859 30.3761 216.355 30.8918 216.988 31.272C217.621 31.6522 218.328 31.8423 219.109 31.8423ZM229.148 30.0298V31.6001H228.461C227.602 31.6001 226.954 31.3566 226.52 30.8696C226.085 30.3826 225.867 29.6548 225.867 28.686V25.147H223.609V23.561H229.922V25.147H227.758V28.6704C227.758 29.134 227.837 29.4764 227.996 29.6978C228.155 29.9191 228.43 30.0298 228.82 30.0298H229.148ZM235.383 31.6001C235.867 31.6001 236.318 31.5168 236.734 31.3501C237.151 31.1834 237.488 30.9204 237.746 30.561C238.004 30.2017 238.133 29.7511 238.133 29.2095C238.133 28.7876 237.996 28.4061 237.723 28.0649C237.449 27.7238 237.109 27.4803 236.703 27.3345C236.969 27.2251 237.198 27.0246 237.391 26.7329C237.583 26.4412 237.68 26.1313 237.68 25.8032C237.68 25.3345 237.572 24.9334 237.355 24.6001C237.139 24.2668 236.831 24.0116 236.43 23.8345C236.029 23.6574 235.552 23.5688 235 23.5688H231.461V31.6001H235.383ZM233.352 26.8423H234.969C235.234 26.8423 235.447 26.7655 235.605 26.6118C235.764 26.4582 235.844 26.2485 235.844 25.9829C235.844 25.7329 235.759 25.535 235.59 25.3892C235.421 25.2433 235.195 25.1704 234.914 25.1704H233.352V26.8423ZM235.211 30.0142H233.352V28.1392H235.234C235.557 28.1392 235.809 28.2238 235.988 28.3931C236.168 28.5623 236.258 28.7928 236.258 29.0845C236.258 29.3709 236.164 29.5975 235.977 29.7642C235.789 29.9308 235.534 30.0142 235.211 30.0142ZM245.613 31.2759C244.965 31.6535 244.237 31.8423 243.43 31.8423C242.633 31.8423 241.913 31.6522 241.27 31.272C240.626 30.8918 240.122 30.3774 239.758 29.729C239.393 29.0806 239.211 28.3657 239.211 27.5845C239.211 26.8084 239.393 26.0949 239.758 25.4438C240.122 24.7928 240.626 24.2772 241.27 23.897C241.913 23.5168 242.635 23.3267 243.438 23.3267C244.245 23.3267 244.971 23.5168 245.617 23.897C246.263 24.2772 246.768 24.7928 247.133 25.4438C247.497 26.0949 247.68 26.8084 247.68 27.5845C247.68 28.3657 247.497 29.0819 247.133 29.7329C246.768 30.384 246.262 30.8983 245.613 31.2759ZM243.445 30.0845C242.997 30.0845 242.595 29.9777 242.238 29.7642C241.882 29.5506 241.6 29.2537 241.395 28.8735C241.189 28.4933 241.086 28.0636 241.086 27.5845C241.086 27.1105 241.189 26.6821 241.395 26.2993C241.6 25.9165 241.883 25.617 242.242 25.4009C242.602 25.1847 243.003 25.0767 243.445 25.0767C243.888 25.0767 244.289 25.1847 244.648 25.4009C245.008 25.617 245.29 25.9165 245.496 26.2993C245.702 26.6821 245.805 27.1105 245.805 27.5845C245.805 28.0636 245.702 28.4933 245.496 28.8735C245.29 29.2537 245.009 29.5506 244.652 29.7642C244.296 29.9777 243.893 30.0845 243.445 30.0845ZM251.125 31.4985C250.917 31.6965 250.648 31.7954 250.32 31.7954C250.107 31.7954 249.917 31.7485 249.75 31.6548C249.583 31.561 249.453 31.4347 249.359 31.2759C249.266 31.117 249.219 30.9438 249.219 30.7563C249.219 30.5688 249.264 30.3957 249.355 30.2368C249.447 30.078 249.577 29.9517 249.746 29.8579C249.915 29.7642 250.109 29.7173 250.328 29.7173C250.542 29.7173 250.733 29.7642 250.902 29.8579C251.072 29.9517 251.203 30.078 251.297 30.2368C251.391 30.3957 251.438 30.5688 251.438 30.7563C251.438 31.0532 251.333 31.3006 251.125 31.4985Z" fill="#52ABFF"/>
</svg>
