<svg width="547" height="502" viewBox="0 0 547 502" fill="none" xmlns="http://www.w3.org/2000/svg">
<path d="M485.352 75.8722C485.352 75.8722 452.151 11.3434 378.832 1.77961C305.514 -7.78423 254.326 38.8259 200.366 62.7219C172.109 75.2337 139.845 70.3839 109.849 76.4292C13.9392 95.8014 -22.1969 217.17 17.7566 286.195C52.344 345.956 113.218 377.025 205.909 384.197C298.599 391.37 363.617 399.739 446.622 341.174C529.626 282.622 524.083 160.724 485.352 75.8722Z" fill="#96CCFF"/>
<path opacity="0.8" d="M485.352 75.8722C485.352 75.8722 452.151 11.3434 378.832 1.77961C305.514 -7.78423 254.326 38.8259 200.366 62.7219C172.109 75.2337 139.845 70.3839 109.849 76.4292C13.9392 95.8014 -22.1969 217.17 17.7566 286.195C52.344 345.956 113.218 377.025 205.909 384.197C298.599 391.37 363.617 399.739 446.622 341.174C529.626 282.622 524.083 160.724 485.352 75.8722Z" fill="white"/>
<path d="M407.633 130.294L393.368 189.796C393.368 189.796 398.286 196.684 400.256 198.653C402.226 200.623 406.654 200.623 408.122 200.623C409.589 200.623 465.165 201.601 465.165 201.601L476.101 128.813" stroke="#263238" stroke-width="1.3585" stroke-linecap="round" stroke-linejoin="round"/>
<path d="M419.533 119.059L415.009 118.977" stroke="#263238" stroke-width="1.3585" stroke-linecap="round" stroke-linejoin="round"/>
<path d="M396.316 190.774L456.321 190.57L469.091 119.955L425.089 119.154" stroke="#263238" stroke-width="1.3585" stroke-linecap="round" stroke-linejoin="round"/>
<path d="M399.753 191.263L404.671 196.684L462.217 198.151L472.623 135.062L468.113 128.813" stroke="#263238" stroke-width="1.3585" stroke-linecap="round" stroke-linejoin="round"/>
<path d="M409.82 194.388H418.147C418.147 194.388 416.762 200.976 416.069 207.226C415.376 213.475 415.023 221.449 415.023 221.449L410.159 212.429L404.264 220.063L409.82 194.388Z" fill="#263238"/>
<path d="M58.8512 207.429L94.3081 193.138C94.3081 193.138 96.0334 188.139 96.3187 186.427C96.604 184.715 95.0009 182.46 94.4711 181.713C93.9413 180.966 74.311 152.315 74.311 152.315L33.2979 173.1" stroke="#263238" stroke-width="1.3585" stroke-linecap="round" stroke-linejoin="round"/>
<path d="M48.8255 205.432L50.4149 207.769" stroke="#263238" stroke-width="1.3585" stroke-linecap="round" stroke-linejoin="round"/>
<path d="M93.7511 191.277L71.92 160.806L31.3281 179.865L46.8557 202.566" stroke="#263238" stroke-width="1.3585" stroke-linecap="round" stroke-linejoin="round"/>
<path d="M92.7458 189.348L93.7239 184.892L73.6317 155.059L37.7402 172.597L36.1915 177.162" stroke="#263238" stroke-width="1.3585" stroke-linecap="round" stroke-linejoin="round"/>
<path d="M90.6945 183.099L87.6786 178.86C87.6786 178.86 91.5368 177.176 94.9738 175.274C98.4108 173.372 102.595 170.655 102.595 170.655L99.7557 176.401L105.774 176.646L90.6945 183.099Z" fill="#263238"/>
<path d="M57.9954 263.128L55.1833 264.541L80.0303 312.088L121.641 267.774L172.435 252.11L147.045 211.586L144.804 211.749" stroke="#263238" stroke-width="1.3585" stroke-linecap="round" stroke-linejoin="round"/>
<path fill-rule="evenodd" clip-rule="evenodd" d="M95.164 222.93L117.321 262.91C117.321 262.91 107.594 260.75 105.434 269.934C103.274 279.117 93.5474 291.004 89.2273 296.411C84.9073 301.818 80.5873 305.595 80.5873 305.595L56.8135 260.207C56.8135 260.207 68.157 251.024 73.5638 238.05C78.9571 225.09 87.5971 221.313 95.164 222.93Z" stroke="#263238" stroke-width="1.3585" stroke-linecap="round" stroke-linejoin="round"/>
<path fill-rule="evenodd" clip-rule="evenodd" d="M117.321 262.91C117.321 262.91 120.025 254.8 126.505 254.27C132.985 253.727 144.872 255.887 155.142 252.654C165.412 249.407 167.029 248.334 167.029 248.334L142.168 207.81C142.168 207.81 136.218 212.673 121.098 212.673C105.964 212.673 96.7806 215.377 95.164 222.943L117.321 262.91Z" stroke="#263238" stroke-width="1.3585" stroke-linecap="round" stroke-linejoin="round"/>
<path d="M118.938 267.244C118.938 267.244 115.161 268.861 111.371 272.108C107.594 275.354 104.347 281.291 97.8674 289.401" stroke="#263238" stroke-width="1.3585" stroke-linecap="round" stroke-linejoin="round"/>
<path d="M123.258 263.997C123.258 263.997 127.034 259.134 132.985 258.59C138.935 258.047 149.192 258.047 165.942 251.567" stroke="#263238" stroke-width="1.3585" stroke-linecap="round" stroke-linejoin="round"/>
<path d="M64.9102 266.157C64.9102 266.157 70.317 260.207 77.8838 249.407C85.4507 238.593 90.8575 234.273 96.7942 234.273" stroke="#263238" stroke-width="1.3585" stroke-linecap="round" stroke-linejoin="round"/>
<path d="M69.2302 273.181C69.2302 273.181 74.6371 267.231 82.2039 256.43C89.7707 245.617 95.1776 241.297 101.114 241.297" stroke="#263238" stroke-width="1.3585" stroke-linecap="round" stroke-linejoin="round"/>
<path d="M73.5502 280.204C73.5502 280.204 78.9571 274.254 86.5239 263.454C94.0908 252.64 99.4976 248.32 105.434 248.32" stroke="#263238" stroke-width="1.3585" stroke-linecap="round" stroke-linejoin="round"/>
<path d="M77.8702 287.228C77.8702 287.228 83.2771 281.277 90.8439 270.477C98.4108 259.664 103.818 255.344 109.754 255.344" stroke="#263238" stroke-width="1.3585" stroke-linecap="round" stroke-linejoin="round"/>
<path d="M104.347 231.04C104.347 231.04 106.507 225.09 114.618 225.09C122.728 225.09 140.619 224.383 142.711 218.066" stroke="#263238" stroke-width="1.3585" stroke-linecap="round" stroke-linejoin="round"/>
<path d="M109.211 239.137C109.211 239.137 112.988 234.273 123.258 234.273C133.528 234.273 142.711 232.113 148.648 226.163" stroke="#263238" stroke-width="1.3585" stroke-linecap="round" stroke-linejoin="round"/>
<path d="M112.458 247.247C112.458 247.247 115.705 240.224 124.888 240.224C134.071 240.224 145.415 238.607 151.909 233.744" stroke="#263238" stroke-width="1.3585" stroke-linecap="round" stroke-linejoin="round"/>
<path d="M116.234 253.184C116.234 253.184 117.851 247.777 127.048 247.233C136.231 246.69 147.575 244.53 156.229 240.753" stroke="#263238" stroke-width="1.3585" stroke-linecap="round" stroke-linejoin="round"/>
<path d="M352.206 20.2824L350.793 18.6658L323.46 43.4312L360.139 63.4419L379.362 94.5244L401.927 70.6148L401.438 69.1612" stroke="#263238" stroke-width="1.3585" stroke-linecap="round" stroke-linejoin="round"/>
<path fill-rule="evenodd" clip-rule="evenodd" d="M385.394 38.0651L362.625 59.7332C362.625 59.7332 362.381 52.8864 355.887 53.0358C349.407 53.1852 339.803 48.7701 335.469 46.841C331.122 44.8984 327.861 42.684 327.861 42.684L353.945 19.0054C353.945 19.0054 362.028 24.9692 371.592 26.3141C381.155 27.6454 385.163 32.7534 385.394 38.0651Z" stroke="#263238" stroke-width="1.3585" stroke-linecap="round" stroke-linejoin="round"/>
<path fill-rule="evenodd" clip-rule="evenodd" d="M362.625 59.7332C362.625 59.7332 368.481 60.1272 369.975 64.3521C371.456 68.5771 372.081 76.8503 376.02 83.1266C379.96 89.3893 380.952 90.2859 380.952 90.2859L403.611 66.7295C403.611 66.7295 399.346 63.6185 396.724 53.552C394.102 43.4856 390.719 37.8478 385.394 38.0787L362.625 59.7332Z" stroke="#263238" stroke-width="1.3585" stroke-linecap="round" stroke-linejoin="round"/>
<path d="M360.031 61.5536C360.031 61.5536 358.292 59.3121 355.48 57.3559C352.668 55.3996 348.157 54.2721 341.637 51.3649" stroke="#263238" stroke-width="1.3585" stroke-linecap="round" stroke-linejoin="round"/>
<path d="M362.938 63.863C362.938 63.863 366.823 65.534 368.222 69.3921C369.608 73.2503 371.388 80.0835 378.601 90.1093" stroke="#263238" stroke-width="1.3585" stroke-linecap="round" stroke-linejoin="round"/>
<path d="M351.391 25.4175C351.391 25.4175 356.281 27.985 364.785 31.1504C373.29 34.3157 377.093 37.1549 378.126 41.1082" stroke="#263238" stroke-width="1.3585" stroke-linecap="round" stroke-linejoin="round"/>
<path d="M347.465 29.5066C347.465 29.5066 352.355 32.0742 360.859 35.2395C369.364 38.4048 373.167 41.244 374.2 45.1973" stroke="#263238" stroke-width="1.3585" stroke-linecap="round" stroke-linejoin="round"/>
<path d="M343.539 33.5957C343.539 33.5957 348.429 36.1633 356.933 39.3286C365.438 42.4939 369.241 45.3331 370.274 49.2864" stroke="#263238" stroke-width="1.3585" stroke-linecap="round" stroke-linejoin="round"/>
<path d="M339.626 37.6984C339.626 37.6984 344.517 40.2659 353.021 43.4312C361.525 46.5965 365.329 49.4358 366.361 53.389" stroke="#263238" stroke-width="1.3585" stroke-linecap="round" stroke-linejoin="round"/>
<path d="M381.59 45.5776C381.59 45.5776 385.924 45.9852 387.323 51.3784C388.722 56.7717 392.295 68.5635 396.86 68.8623" stroke="#263238" stroke-width="1.3585" stroke-linecap="round" stroke-linejoin="round"/>
<path d="M377.039 50.2101C377.039 50.2101 380.924 51.881 382.704 58.7143C384.484 65.5475 387.513 71.2804 392.499 74.2148" stroke="#263238" stroke-width="1.3585" stroke-linecap="round" stroke-linejoin="round"/>
<path d="M372.216 53.783C372.216 53.783 377.447 54.7203 379.05 60.8336C380.639 66.9468 383.682 74.2148 388.043 77.6926" stroke="#263238" stroke-width="1.3585" stroke-linecap="round" stroke-linejoin="round"/>
<path d="M368.915 57.3286C368.915 57.3286 372.787 57.4645 374.743 63.4962C376.699 69.5144 380.096 76.6872 384.117 81.7816" stroke="#263238" stroke-width="1.3585" stroke-linecap="round" stroke-linejoin="round"/>
<path d="M154.571 74.0519L131.871 109.645L136.788 110.867L159.489 77.1221L195.693 97.9751L200.597 93.0709L160.712 72.2179" stroke="#263238" stroke-width="1.3585" stroke-linecap="round" stroke-linejoin="round"/>
<path d="M159.489 77.1221L169.297 136.027L199.361 153.198L195.068 101.045" stroke="#263238" stroke-width="1.3585" stroke-linecap="round" stroke-linejoin="round"/>
<path d="M199.361 153.198L204.279 144.001L200.597 93.0708" stroke="#263238" stroke-width="1.3585" stroke-linecap="round" stroke-linejoin="round"/>
<path d="M169.297 136.027L149.056 163.631L138.622 115.771" stroke="#263238" stroke-width="1.3585" stroke-linecap="round" stroke-linejoin="round"/>
<path d="M131.871 109.645L143.54 163.02L149.056 163.631" stroke="#263238" stroke-width="1.3585" stroke-linecap="round" stroke-linejoin="round"/>
<path d="M160.712 97.3636L144.763 119.453" stroke="#263238" stroke-width="1.3585" stroke-linecap="round" stroke-linejoin="round"/>
<path d="M161.934 107.797L145.985 129.886" stroke="#263238" stroke-width="1.3585" stroke-linecap="round" stroke-linejoin="round"/>
<path d="M163.17 118.23L147.208 140.319" stroke="#263238" stroke-width="1.3585" stroke-linecap="round" stroke-linejoin="round"/>
<path d="M164.393 128.664L148.444 150.753" stroke="#263238" stroke-width="1.3585" stroke-linecap="round" stroke-linejoin="round"/>
<path d="M167.463 97.975L188.941 110.256" stroke="#263238" stroke-width="1.3585" stroke-linecap="round" stroke-linejoin="round"/>
<path d="M167.463 107.797L188.941 120.064" stroke="#263238" stroke-width="1.3585" stroke-linecap="round" stroke-linejoin="round"/>
<path d="M170.534 118.23L192.011 130.497" stroke="#263238" stroke-width="1.3585" stroke-linecap="round" stroke-linejoin="round"/>
<path d="M171.145 128.664L192.623 140.931" stroke="#263238" stroke-width="1.3585" stroke-linecap="round" stroke-linejoin="round"/>
<path d="M465.437 332.398L484.442 294.699L479.429 293.979L460.247 329.83L422.128 312.727L417.74 318.106L459.514 334.843" stroke="#263238" stroke-width="1.3585" stroke-linecap="round" stroke-linejoin="round"/>
<path d="M460.247 329.83L444.543 272.216L412.904 258.156L422.427 309.616" stroke="#263238" stroke-width="1.3585" stroke-linecap="round" stroke-linejoin="round"/>
<path d="M412.904 258.156L408.95 267.815L417.74 318.106" stroke="#263238" stroke-width="1.3585" stroke-linecap="round" stroke-linejoin="round"/>
<path d="M444.543 272.216L461.905 242.71L477.106 289.279" stroke="#263238" stroke-width="1.3585" stroke-linecap="round" stroke-linejoin="round"/>
<path d="M484.442 294.699L467.461 242.764L461.905 242.71" stroke="#263238" stroke-width="1.3585" stroke-linecap="round" stroke-linejoin="round"/>
<path d="M456.987 309.82L470.626 286.236" stroke="#263238" stroke-width="1.3585" stroke-linecap="round" stroke-linejoin="round"/>
<path d="M454.718 299.563L468.357 275.979" stroke="#263238" stroke-width="1.3585" stroke-linecap="round" stroke-linejoin="round"/>
<path d="M452.436 289.306L466.089 265.723" stroke="#263238" stroke-width="1.3585" stroke-linecap="round" stroke-linejoin="round"/>
<path d="M450.167 279.05L463.82 255.466" stroke="#263238" stroke-width="1.3585" stroke-linecap="round" stroke-linejoin="round"/>
<path d="M450.208 309.887L427.603 299.834" stroke="#263238" stroke-width="1.3585" stroke-linecap="round" stroke-linejoin="round"/>
<path d="M449.216 300.12L426.611 290.067" stroke="#263238" stroke-width="1.3585" stroke-linecap="round" stroke-linejoin="round"/>
<path d="M445.114 290.053L422.508 280" stroke="#263238" stroke-width="1.3585" stroke-linecap="round" stroke-linejoin="round"/>
<path d="M443.456 279.729L420.851 269.689" stroke="#263238" stroke-width="1.3585" stroke-linecap="round" stroke-linejoin="round"/>
<path fill-rule="evenodd" clip-rule="evenodd" d="M311.464 251.567C336.732 239.001 358.985 308.176 358.985 308.176L368.942 333.743C373.208 344.869 363.182 342.627 330.755 310.771C315.553 295.841 285.164 264.649 311.464 251.567ZM383.017 351.974C379.199 361.388 375.3 353.821 375.912 314.371C376.197 295.881 377.501 258.115 397.946 266.429C417.59 274.417 391.711 330.265 391.711 330.265L383.017 351.974ZM411.097 357.571C411.097 357.571 453.713 313.161 437.737 299.223C421.095 284.728 407.605 320.022 401.329 337.411C387.934 374.511 389.171 382.934 395.841 375.272L411.097 357.571ZM448.904 356.688C459.106 369.648 420.09 397.429 420.09 397.429L405.853 408.773C399.645 413.663 399.916 407.034 415.539 380.611C422.848 368.221 438.28 343.184 448.904 356.688ZM430.646 437.165C430.646 437.165 469.662 409.384 459.459 396.424C448.836 382.92 433.403 407.958 426.081 420.347C410.458 446.77 410.187 453.399 416.395 448.509L430.646 437.165ZM299.02 348.102C307.905 328.852 362.503 357.272 362.503 357.272L383.791 366.944C393.015 371.183 385.272 374.742 345.902 372.311C327.454 371.169 289.783 368.14 299.02 348.102ZM370.192 388.558C370.192 388.558 311.03 371.563 306.166 392.199C301.099 413.677 338.607 409.167 356.92 406.613C395.99 401.165 402.864 396.139 392.988 393.816L370.192 388.558ZM329.668 427.208C333.323 409.656 383.737 422.657 383.737 422.657L403.122 426.569C411.531 428.308 405.839 432.709 372.923 438.225C357.504 440.806 325.878 445.493 329.668 427.208ZM391.629 450.818C391.629 450.818 342.873 432.533 337.385 449.609C331.679 467.378 363.617 466.074 379.226 465.15C412.537 463.167 418.677 459.39 410.499 456.769L391.629 450.818Z" fill="#BBFF74"/>
<path opacity="0.65" fill-rule="evenodd" clip-rule="evenodd" d="M311.464 251.567C336.732 239.001 358.985 308.176 358.985 308.176L368.942 333.743C373.208 344.869 363.182 342.627 330.755 310.771C315.553 295.841 285.164 264.649 311.464 251.567ZM383.017 351.974C379.199 361.388 375.3 353.821 375.912 314.371C376.197 295.881 377.501 258.115 397.946 266.429C417.59 274.417 391.711 330.265 391.711 330.265L383.017 351.974ZM411.097 357.571C411.097 357.571 453.713 313.161 437.737 299.223C421.095 284.728 407.605 320.022 401.329 337.411C387.934 374.511 389.171 382.934 395.841 375.272L411.097 357.571ZM448.904 356.688C459.106 369.648 420.09 397.429 420.09 397.429L405.853 408.773C399.645 413.663 399.916 407.034 415.539 380.611C422.848 368.221 438.28 343.184 448.904 356.688ZM430.646 437.165C430.646 437.165 469.662 409.384 459.459 396.424C448.836 382.92 433.403 407.958 426.081 420.347C410.458 446.77 410.187 453.399 416.395 448.509L430.646 437.165ZM299.02 348.102C307.905 328.852 362.503 357.272 362.503 357.272L383.791 366.944C393.015 371.183 385.272 374.742 345.902 372.311C327.454 371.169 289.783 368.14 299.02 348.102ZM370.192 388.558C370.192 388.558 311.03 371.563 306.166 392.199C301.099 413.677 338.607 409.167 356.92 406.613C395.99 401.165 402.864 396.139 392.988 393.816L370.192 388.558ZM329.668 427.208C333.323 409.656 383.737 422.657 383.737 422.657L403.122 426.569C411.531 428.308 405.839 432.709 372.923 438.225C357.504 440.806 325.878 445.493 329.668 427.208ZM391.629 450.818C391.629 450.818 342.873 432.533 337.385 449.609C331.679 467.378 363.617 466.074 379.226 465.15C412.537 463.167 418.677 459.39 410.499 456.769L391.629 450.818Z" fill="white"/>
<path d="M322.033 276.21C322.033 276.21 377.936 344.407 391.303 378.56C406.668 417.779 417.142 461.985 419.207 498.57" stroke="#CCCCCC" stroke-width="1.70084" stroke-linecap="round" stroke-linejoin="round"/>
<path d="M380.177 356.28L387.948 291.249" stroke="#CCCCCC" stroke-width="1.70084" stroke-linecap="round" stroke-linejoin="round"/>
<path d="M391.303 378.56L419.424 323.894" stroke="#CCCCCC" stroke-width="1.70084" stroke-linecap="round" stroke-linejoin="round"/>
<path d="M387.201 370.463L328.31 358.454" stroke="#CCCCCC" stroke-width="1.70084" stroke-linecap="round" stroke-linejoin="round"/>
<path d="M402.375 409.574L437.003 370.123" stroke="#CCCCCC" stroke-width="1.70084" stroke-linecap="round" stroke-linejoin="round"/>
<path d="M397.539 396.587L353.075 396.193" stroke="#CCCCCC" stroke-width="1.70084" stroke-linecap="round" stroke-linejoin="round"/>
<path d="M406.097 428.865L371.999 430.21" stroke="#CCCCCC" stroke-width="1.70084" stroke-linecap="round" stroke-linejoin="round"/>
<path d="M413.094 449.46L431.352 425.115" stroke="#CCCCCC" stroke-width="1.70084" stroke-linecap="round" stroke-linejoin="round"/>
<path d="M414.425 458.507L374.553 456.524" stroke="#CCCCCC" stroke-width="1.70084" stroke-linecap="round" stroke-linejoin="round"/>
<path fill-rule="evenodd" clip-rule="evenodd" d="M508.773 318.432C527.873 325.7 502.021 371.536 502.021 371.536L493.313 389.4C489.496 397.13 485.76 390.705 486.765 357.788C487.227 342.369 488.884 310.866 508.773 318.432ZM451.308 359.269C465.912 354.528 477.636 397.538 477.636 397.538L482.948 413.622C485.23 420.619 479.524 418.241 461.47 396.111C453.006 385.732 436.107 364.2 451.308 359.269ZM490.542 405.852C483.668 408.447 485.76 402.646 507.048 383.586C517.019 374.661 537.75 356.783 543.374 371.74C548.781 386.113 506.355 399.793 506.355 399.793L490.542 405.852ZM501.369 423.526C501.369 423.526 545.941 424.368 545.493 409.017C545.031 393.041 519.614 403.216 507.278 408.419C480.964 419.532 477.093 424.327 484.442 424.11L501.369 423.526ZM520.415 443.197C518.527 455.002 484.578 447.897 484.578 447.897L471.55 445.887C465.899 445.004 469.553 441.893 491.289 437.206C501.478 435.005 522.371 430.916 520.415 443.197ZM468.629 473.057C468.629 473.057 502.578 480.162 504.466 468.356C506.423 456.076 485.529 460.165 475.34 462.365C453.604 467.052 449.95 470.163 455.601 471.046L468.629 473.057ZM464.771 417.005C464.771 417.005 444.733 377.188 431.366 384.727C417.441 392.579 438.294 410.321 448.646 418.812C470.748 436.921 476.794 438.103 473.18 431.704L464.771 417.005ZM424.288 414.451C435.427 407.754 453.292 440.969 453.292 440.969L460.736 453.209C463.942 458.535 458.807 457.665 439.693 442.871C430.741 435.943 412.7 421.42 424.288 414.451ZM442.193 459.01C442.193 459.01 427.956 424.083 416.177 429.558C403.91 435.25 420.307 451.606 428.485 459.458C445.915 476.195 450.942 477.608 448.32 471.97L442.193 459.01Z" fill="#BBFF74"/>
<path opacity="0.65" fill-rule="evenodd" clip-rule="evenodd" d="M508.773 318.432C527.873 325.7 502.021 371.536 502.021 371.536L493.313 389.4C489.496 397.13 485.76 390.705 486.765 357.788C487.227 342.369 488.884 310.866 508.773 318.432ZM451.308 359.269C465.912 354.528 477.636 397.538 477.636 397.538L482.948 413.622C485.23 420.619 479.524 418.241 461.47 396.111C453.006 385.732 436.107 364.2 451.308 359.269ZM490.542 405.852C483.668 408.447 485.76 402.646 507.048 383.586C517.019 374.661 537.75 356.783 543.374 371.74C548.781 386.113 506.355 399.793 506.355 399.793L490.542 405.852ZM501.369 423.526C501.369 423.526 545.941 424.368 545.493 409.017C545.031 393.041 519.614 403.216 507.278 408.419C480.964 419.532 477.093 424.327 484.442 424.11L501.369 423.526ZM520.415 443.197C518.527 455.002 484.578 447.897 484.578 447.897L471.55 445.887C465.899 445.004 469.553 441.893 491.289 437.206C501.478 435.005 522.371 430.916 520.415 443.197ZM468.629 473.057C468.629 473.057 502.578 480.162 504.466 468.356C506.423 456.076 485.529 460.165 475.34 462.365C453.604 467.052 449.95 470.163 455.601 471.046L468.629 473.057ZM464.771 417.005C464.771 417.005 444.733 377.188 431.366 384.727C417.441 392.579 438.294 410.321 448.646 418.812C470.748 436.921 476.794 438.103 473.18 431.704L464.771 417.005ZM424.288 414.451C435.427 407.754 453.292 440.969 453.292 440.969L460.736 453.209C463.942 458.535 458.807 457.665 439.693 442.871C430.741 435.943 412.7 421.42 424.288 414.451ZM442.193 459.01C442.193 459.01 427.956 424.083 416.177 429.558C403.91 435.25 420.307 451.606 428.485 459.458C445.915 476.195 450.942 477.608 448.32 471.97L442.193 459.01Z" fill="#E5E5E5"/>
<path d="M500.853 336.161C500.853 336.161 492.05 399.413 480.462 423.309C467.148 450.764 447.07 479.985 428.621 499.072" stroke="#CCCCCC" stroke-width="1.70084" stroke-linecap="round" stroke-linejoin="round"/>
<path d="M486.847 406.45L525.265 378.614" stroke="#CCCCCC" stroke-width="1.70084" stroke-linecap="round" stroke-linejoin="round"/>
<path d="M480.475 423.322L523.377 411.408" stroke="#CCCCCC" stroke-width="1.70084" stroke-linecap="round" stroke-linejoin="round"/>
<path d="M482.758 417.155L460.193 379.932" stroke="#CCCCCC" stroke-width="1.70084" stroke-linecap="round" stroke-linejoin="round"/>
<path d="M469.404 444.447L507.414 443.482" stroke="#CCCCCC" stroke-width="1.70084" stroke-linecap="round" stroke-linejoin="round"/>
<path d="M473.941 435.494L452.3 411.653" stroke="#CCCCCC" stroke-width="1.70084" stroke-linecap="round" stroke-linejoin="round"/>
<path d="M460.981 455.913L443.497 438.429" stroke="#CCCCCC" stroke-width="1.70084" stroke-linecap="round" stroke-linejoin="round"/>
<path d="M453.468 469.756L475.395 467.514" stroke="#CCCCCC" stroke-width="1.70084" stroke-linecap="round" stroke-linejoin="round"/>
<path d="M449.311 474.918L430.754 452.734" stroke="#CCCCCC" stroke-width="1.70084" stroke-linecap="round" stroke-linejoin="round"/>
<path fill-rule="evenodd" clip-rule="evenodd" d="M234.193 251.567C208.925 239.001 186.673 308.176 186.673 308.176L176.715 333.743C172.449 344.869 182.475 342.627 214.902 310.771C230.104 295.841 260.493 264.649 234.193 251.567ZM162.641 351.974C166.458 361.388 170.357 353.821 169.746 314.371C169.46 295.881 168.156 258.115 147.711 266.429C128.067 274.417 153.946 330.265 153.946 330.265L162.641 351.974ZM134.56 357.571C134.56 357.571 91.9443 313.161 107.92 299.223C124.562 284.728 138.052 320.022 144.328 337.411C157.723 374.511 156.487 382.934 149.816 375.272L134.56 357.571ZM96.7534 356.688C86.5511 369.648 125.567 397.429 125.567 397.429L139.804 408.773C146.013 413.663 145.741 407.034 130.118 380.611C122.809 368.221 107.377 343.184 96.7534 356.688ZM115.012 437.165C115.012 437.165 75.9956 409.384 86.1979 396.424C96.8214 382.92 112.254 407.958 119.576 420.347C135.199 446.77 135.471 453.399 129.262 448.509L115.012 437.165ZM246.637 348.102C237.752 328.852 183.154 357.272 183.154 357.272L161.866 366.944C152.642 371.183 160.386 374.742 199.755 372.311C218.203 371.169 255.875 368.14 246.637 348.102ZM175.465 388.558C175.465 388.558 234.628 371.563 239.491 392.199C244.558 413.677 207.05 409.167 188.737 406.613C149.667 401.165 142.793 396.139 152.669 393.816L175.465 388.558ZM215.989 427.208C212.335 409.656 161.921 422.657 161.921 422.657L142.535 426.569C134.126 428.308 139.818 432.709 172.734 438.225C188.153 440.806 219.779 445.493 215.989 427.208ZM154.028 450.818C154.028 450.818 202.784 432.533 208.273 449.609C213.978 467.378 182.04 466.074 166.431 465.15C133.12 463.167 126.98 459.39 135.158 456.769L154.028 450.818Z" fill="#BBFF74"/>
<path opacity="0.65" fill-rule="evenodd" clip-rule="evenodd" d="M234.193 251.567C208.925 239.001 186.673 308.176 186.673 308.176L176.715 333.743C172.449 344.869 182.475 342.627 214.902 310.771C230.104 295.841 260.493 264.649 234.193 251.567ZM162.641 351.974C166.458 361.388 170.357 353.821 169.746 314.371C169.46 295.881 168.156 258.115 147.711 266.429C128.067 274.417 153.946 330.265 153.946 330.265L162.641 351.974ZM134.56 357.571C134.56 357.571 91.9443 313.161 107.92 299.223C124.562 284.728 138.052 320.022 144.328 337.411C157.723 374.511 156.487 382.934 149.816 375.272L134.56 357.571ZM96.7534 356.688C86.5511 369.648 125.567 397.429 125.567 397.429L139.804 408.773C146.013 413.663 145.741 407.034 130.118 380.611C122.809 368.221 107.377 343.184 96.7534 356.688ZM115.012 437.165C115.012 437.165 75.9956 409.384 86.1979 396.424C96.8214 382.92 112.254 407.958 119.576 420.347C135.199 446.77 135.471 453.399 129.262 448.509L115.012 437.165ZM246.637 348.102C237.752 328.852 183.154 357.272 183.154 357.272L161.866 366.944C152.642 371.183 160.386 374.742 199.755 372.311C218.203 371.169 255.875 368.14 246.637 348.102ZM175.465 388.558C175.465 388.558 234.628 371.563 239.491 392.199C244.558 413.677 207.05 409.167 188.737 406.613C149.667 401.165 142.793 396.139 152.669 393.816L175.465 388.558ZM215.989 427.208C212.335 409.656 161.921 422.657 161.921 422.657L142.535 426.569C134.126 428.308 139.818 432.709 172.734 438.225C188.153 440.806 219.779 445.493 215.989 427.208ZM154.028 450.818C154.028 450.818 202.784 432.533 208.273 449.609C213.978 467.378 182.04 466.074 166.431 465.15C133.12 463.167 126.98 459.39 135.158 456.769L154.028 450.818Z" fill="white"/>
<path d="M223.624 276.21C223.624 276.21 167.721 344.407 154.354 378.56C138.989 417.779 128.515 461.985 126.45 498.57" stroke="#CCCCCC" stroke-width="1.70084" stroke-linecap="round" stroke-linejoin="round"/>
<path d="M165.48 356.28L157.709 291.249" stroke="#CCCCCC" stroke-width="1.70084" stroke-linecap="round" stroke-linejoin="round"/>
<path d="M154.354 378.56L126.233 323.894" stroke="#CCCCCC" stroke-width="1.70084" stroke-linecap="round" stroke-linejoin="round"/>
<path d="M158.456 370.463L217.347 358.454" stroke="#CCCCCC" stroke-width="1.70084" stroke-linecap="round" stroke-linejoin="round"/>
<path d="M143.282 409.574L108.654 370.123" stroke="#CCCCCC" stroke-width="1.70084" stroke-linecap="round" stroke-linejoin="round"/>
<path d="M148.132 396.587L192.582 396.193" stroke="#CCCCCC" stroke-width="1.70084" stroke-linecap="round" stroke-linejoin="round"/>
<path d="M139.573 428.865L173.658 430.21" stroke="#CCCCCC" stroke-width="1.70084" stroke-linecap="round" stroke-linejoin="round"/>
<path d="M132.563 449.46L114.305 425.115" stroke="#CCCCCC" stroke-width="1.70084" stroke-linecap="round" stroke-linejoin="round"/>
<path d="M131.232 458.507L171.104 456.524" stroke="#CCCCCC" stroke-width="1.70084" stroke-linecap="round" stroke-linejoin="round"/>
<path fill-rule="evenodd" clip-rule="evenodd" d="M36.8843 318.432C17.7838 325.7 43.6361 371.536 43.6361 371.536L52.3441 389.4C56.1615 397.13 59.8973 390.705 58.8921 357.788C58.4302 342.369 56.7728 310.866 36.8843 318.432ZM94.3489 359.269C79.745 354.528 68.0212 397.538 68.0212 397.538L62.7094 413.622C60.4272 420.619 66.1329 418.241 84.1873 396.111C92.6508 385.732 109.551 364.2 94.3489 359.269ZM55.129 405.852C62.003 408.447 59.8973 402.646 38.6232 383.586C28.6518 374.661 7.92113 356.783 2.29694 371.74C-3.10989 386.113 39.3161 399.793 39.3161 399.793L55.129 405.852ZM44.3018 423.526C44.3018 423.526 -0.270629 424.368 0.177676 409.017C0.639566 393.041 26.0571 403.216 38.3923 408.419C64.7064 419.532 68.5782 424.327 61.2287 424.11L44.3018 423.526ZM25.242 443.197C27.1303 455.002 61.0792 447.897 61.0792 447.897L74.1073 445.887C79.7586 445.004 76.1042 441.893 54.3682 437.206C44.1795 435.005 23.2858 430.916 25.242 443.197ZM77.028 473.057C77.028 473.057 43.0791 480.162 41.1908 468.356C39.2346 456.076 60.1283 460.165 70.317 462.365C92.053 467.052 95.7074 470.163 90.056 471.046L77.028 473.057ZM80.8862 417.005C80.8862 417.005 100.924 377.188 114.292 384.727C128.216 392.579 107.363 410.321 97.0116 418.812C74.9088 436.921 68.8634 438.103 72.4771 431.704L80.8862 417.005ZM121.369 414.451C110.23 407.754 92.3655 440.969 92.3655 440.969L84.9209 453.209C81.7149 458.535 86.85 457.665 105.964 442.871C114.917 435.943 132.957 421.42 121.369 414.451ZM103.464 459.01C103.464 459.01 117.702 424.083 129.48 429.558C141.747 435.25 125.35 451.606 117.172 459.458C99.7421 476.195 94.7157 477.608 97.3512 471.97L103.464 459.01Z" fill="#BBFF74"/>
<path opacity="0.65" fill-rule="evenodd" clip-rule="evenodd" d="M36.8843 318.432C17.7838 325.7 43.6361 371.536 43.6361 371.536L52.3441 389.4C56.1615 397.13 59.8973 390.705 58.8921 357.788C58.4302 342.369 56.7728 310.866 36.8843 318.432ZM94.3489 359.269C79.745 354.528 68.0212 397.538 68.0212 397.538L62.7094 413.622C60.4272 420.619 66.1329 418.241 84.1873 396.111C92.6508 385.732 109.551 364.2 94.3489 359.269ZM55.129 405.852C62.003 408.447 59.8973 402.646 38.6232 383.586C28.6518 374.661 7.92113 356.783 2.29694 371.74C-3.10989 386.113 39.3161 399.793 39.3161 399.793L55.129 405.852ZM44.3018 423.526C44.3018 423.526 -0.270629 424.368 0.177676 409.017C0.639566 393.041 26.0571 403.216 38.3923 408.419C64.7064 419.532 68.5782 424.327 61.2287 424.11L44.3018 423.526ZM25.242 443.197C27.1303 455.002 61.0792 447.897 61.0792 447.897L74.1073 445.887C79.7586 445.004 76.1042 441.893 54.3682 437.206C44.1795 435.005 23.2858 430.916 25.242 443.197ZM77.028 473.057C77.028 473.057 43.0791 480.162 41.1908 468.356C39.2346 456.076 60.1283 460.165 70.317 462.365C92.053 467.052 95.7074 470.163 90.056 471.046L77.028 473.057ZM80.8862 417.005C80.8862 417.005 100.924 377.188 114.292 384.727C128.216 392.579 107.363 410.321 97.0116 418.812C74.9088 436.921 68.8634 438.103 72.4771 431.704L80.8862 417.005ZM121.369 414.451C110.23 407.754 92.3655 440.969 92.3655 440.969L84.9209 453.209C81.7149 458.535 86.85 457.665 105.964 442.871C114.917 435.943 132.957 421.42 121.369 414.451ZM103.464 459.01C103.464 459.01 117.702 424.083 129.48 429.558C141.747 435.25 125.35 451.606 117.172 459.458C99.7421 476.195 94.7157 477.608 97.3512 471.97L103.464 459.01Z" fill="#E5E5E5"/>
<path d="M44.8044 336.161C44.8044 336.161 53.6075 399.413 65.1955 423.309C78.5088 450.764 98.5874 479.985 117.036 499.072" stroke="#CCCCCC" stroke-width="1.70084" stroke-linecap="round" stroke-linejoin="round"/>
<path d="M58.8105 406.45L20.3922 378.614" stroke="#CCCCCC" stroke-width="1.70084" stroke-linecap="round" stroke-linejoin="round"/>
<path d="M65.1954 423.322L22.294 411.408" stroke="#CCCCCC" stroke-width="1.70084" stroke-linecap="round" stroke-linejoin="round"/>
<path d="M62.8996 417.155L85.4643 379.932" stroke="#CCCCCC" stroke-width="1.70084" stroke-linecap="round" stroke-linejoin="round"/>
<path d="M76.2536 444.447L38.2428 443.482" stroke="#CCCCCC" stroke-width="1.70084" stroke-linecap="round" stroke-linejoin="round"/>
<path d="M71.7162 435.494L93.3707 411.653" stroke="#CCCCCC" stroke-width="1.70084" stroke-linecap="round" stroke-linejoin="round"/>
<path d="M84.6763 455.913L102.16 438.429" stroke="#CCCCCC" stroke-width="1.70084" stroke-linecap="round" stroke-linejoin="round"/>
<path d="M92.1889 469.756L70.2762 467.514" stroke="#CCCCCC" stroke-width="1.70084" stroke-linecap="round" stroke-linejoin="round"/>
<path d="M96.3459 474.918L114.903 452.734" stroke="#CCCCCC" stroke-width="1.70084" stroke-linecap="round" stroke-linejoin="round"/>
<rect x="181.877" y="347.368" width="143.621" height="29.3979" fill="white" stroke="#263238" stroke-width="1.3585" stroke-linecap="round" stroke-linejoin="round"/>
<path d="M183.371 354.99H208.572" stroke="#263238" stroke-width="1.3585" stroke-linecap="round" stroke-linejoin="round"/>
<path d="M216.981 363.005H220.418" stroke="#263238" stroke-width="1.3585" stroke-linecap="round" stroke-linejoin="round"/>
<path d="M182.977 363.005H211.248" stroke="#263238" stroke-width="1.3585" stroke-linecap="round" stroke-linejoin="round"/>
<path d="M183.575 371.319H195.204" stroke="#263238" stroke-width="1.3585" stroke-linecap="round" stroke-linejoin="round"/>
<path d="M296.018 348.374C296.018 348.374 291.97 360.872 296.018 376.087H353.89C353.89 376.087 347.804 358.522 353.89 348.374H296.018Z" fill="white"/>
<path opacity="0.24" d="M296.018 348.374C296.018 348.374 291.97 360.872 296.018 376.087H353.89C353.89 376.087 347.804 358.522 353.89 348.374H296.018Z" fill="black" stroke="#263238" stroke-width="1.3585" stroke-linecap="round" stroke-linejoin="round"/>
<path fill-rule="evenodd" clip-rule="evenodd" d="M296.018 348.374C296.018 348.374 291.97 360.872 296.018 376.087H353.89C353.89 376.087 347.804 358.522 353.89 348.374H296.018Z" stroke="#263238" stroke-width="1.3585" stroke-linecap="round" stroke-linejoin="round"/>
<path d="M183.575 371.319V351.24C183.575 350.208 184.404 349.379 185.436 349.379H356.2C356.974 349.379 357.613 348.754 357.613 347.966C357.613 347.192 356.988 346.553 356.2 346.553H180.817C179.785 346.553 178.956 347.382 178.956 348.414V374.117C178.956 375.775 180.301 377.12 181.959 377.12H356.186C356.96 377.12 357.599 376.495 357.599 375.707C357.599 374.932 356.974 374.294 356.186 374.294H186.577C184.92 374.335 183.575 372.976 183.575 371.319Z" fill="#263238" stroke="#263238" stroke-width="1.3585" stroke-linecap="round" stroke-linejoin="round"/>
<rect x="181.877" y="408.039" width="143.621" height="29.3979" fill="white" stroke="#263238" stroke-width="1.3585" stroke-linecap="round" stroke-linejoin="round"/>
<path d="M184.281 413.704H209.495" stroke="#263238" stroke-width="1.3585" stroke-linecap="round" stroke-linejoin="round"/>
<path d="M217.891 421.733H221.328" stroke="#263238" stroke-width="1.3585" stroke-linecap="round" stroke-linejoin="round"/>
<path d="M183.901 421.733H212.158" stroke="#263238" stroke-width="1.3585" stroke-linecap="round" stroke-linejoin="round"/>
<path d="M184.485 430.033H196.114" stroke="#263238" stroke-width="1.3585" stroke-linecap="round" stroke-linejoin="round"/>
<path d="M296.915 409.058C296.915 409.058 292.866 421.556 296.915 436.771H353.877C353.877 436.771 347.791 419.206 353.877 409.058H296.915Z" fill="white"/>
<path opacity="0.24" d="M296.915 409.058C296.915 409.058 292.866 421.556 296.915 436.771H353.877C353.877 436.771 347.791 419.206 353.877 409.058H296.915Z" fill="black" stroke="#263238" stroke-width="1.3585" stroke-linecap="round" stroke-linejoin="round"/>
<path fill-rule="evenodd" clip-rule="evenodd" d="M296.915 409.058C296.915 409.058 292.866 421.556 296.915 436.771H353.877C353.877 436.771 347.791 419.206 353.877 409.058H296.915Z" stroke="#263238" stroke-width="1.3585" stroke-linecap="round" stroke-linejoin="round"/>
<path d="M183.575 432.003V411.924C183.575 410.892 184.404 410.063 185.436 410.063H356.2C356.974 410.063 357.613 409.438 357.613 408.65C357.613 407.876 356.988 407.238 356.2 407.238H180.817C179.785 407.238 178.956 408.066 178.956 409.099V434.802C178.956 436.459 180.301 437.804 181.959 437.804H356.186C356.96 437.804 357.599 437.179 357.599 436.391C357.599 435.617 356.974 434.978 356.186 434.978H186.577C184.92 435.005 183.575 433.66 183.575 432.003Z" fill="#263238" stroke="#263238" stroke-width="1.3585" stroke-linecap="round" stroke-linejoin="round"/>
<path d="M183.711 465.449C184.716 462.08 188.411 448.115 183.847 439.189H349.122V465.449H183.711Z" fill="white" stroke="#263238" stroke-width="1.3585" stroke-linecap="round" stroke-linejoin="round"/>
<path d="M282.392 444.99H257.179" stroke="#263238" stroke-width="1.3585" stroke-linecap="round" stroke-linejoin="round"/>
<path d="M248.77 453.005H245.333" stroke="#263238" stroke-width="1.3585" stroke-linecap="round" stroke-linejoin="round"/>
<path d="M282.773 453.005H254.502" stroke="#263238" stroke-width="1.3585" stroke-linecap="round" stroke-linejoin="round"/>
<path d="M282.175 461.319H270.546" stroke="#263238" stroke-width="1.3585" stroke-linecap="round" stroke-linejoin="round"/>
<path d="M283.316 462.8V442.722C283.316 441.689 282.488 440.86 281.455 440.86H180.355C179.581 440.86 178.943 440.236 178.943 439.448C178.943 438.673 179.568 438.035 180.355 438.035H355.738C356.77 438.035 357.599 438.863 357.599 439.896V465.599C357.599 467.256 356.254 468.601 354.597 468.601H180.369C179.595 468.601 178.956 467.976 178.956 467.188C178.956 466.414 179.581 465.775 180.369 465.775H280.314C281.971 465.803 283.316 464.458 283.316 462.8Z" fill="#263238" stroke="#263238" stroke-width="1.3585" stroke-linecap="round" stroke-linejoin="round"/>
<path d="M183.711 496.233C184.716 492.864 188.411 478.898 183.847 469.973H349.122V496.233H183.711Z" fill="white" stroke="#263238" stroke-width="1.3585" stroke-linecap="round" stroke-linejoin="round"/>
<path d="M282.311 475.964H257.097" stroke="#263238" stroke-width="1.3585" stroke-linecap="round" stroke-linejoin="round"/>
<path d="M248.688 483.993H245.251" stroke="#263238" stroke-width="1.3585" stroke-linecap="round" stroke-linejoin="round"/>
<path d="M282.691 483.993H254.421" stroke="#263238" stroke-width="1.3585" stroke-linecap="round" stroke-linejoin="round"/>
<path d="M282.094 492.307H270.465" stroke="#263238" stroke-width="1.3585" stroke-linecap="round" stroke-linejoin="round"/>
<path d="M283.316 493.584V473.505C283.316 472.473 282.488 471.644 281.455 471.644H180.355C179.581 471.644 178.943 471.019 178.943 470.231C178.943 469.457 179.568 468.818 180.355 468.818H355.738C356.77 468.818 357.599 469.647 357.599 470.68V496.382C357.599 498.04 356.254 499.385 354.597 499.385H180.369C179.595 499.385 178.956 498.76 178.956 497.972C178.956 497.197 179.581 496.559 180.369 496.559H280.314C281.971 496.6 283.316 495.241 283.316 493.584Z" fill="#BBFF74" stroke="#263238" stroke-width="1.3585" stroke-linecap="round" stroke-linejoin="round"/>
<path d="M183.711 403.855C184.716 400.486 188.411 386.52 183.847 377.595H349.122V403.855H183.711Z" fill="white" stroke="#263238" stroke-width="1.3585" stroke-linecap="round" stroke-linejoin="round"/>
<path d="M282.746 383.477H257.532" stroke="#263238" stroke-width="1.3585" stroke-linecap="round" stroke-linejoin="round"/>
<path d="M249.123 391.492H245.686" stroke="#263238" stroke-width="1.3585" stroke-linecap="round" stroke-linejoin="round"/>
<path d="M283.126 391.492H254.856" stroke="#263238" stroke-width="1.3585" stroke-linecap="round" stroke-linejoin="round"/>
<path d="M282.542 399.806H270.9" stroke="#263238" stroke-width="1.3585" stroke-linecap="round" stroke-linejoin="round"/>
<path d="M283.316 401.206V381.127C283.316 380.095 282.488 379.266 281.455 379.266H180.355C179.581 379.266 178.943 378.641 178.943 377.853C178.943 377.079 179.568 376.44 180.355 376.44H355.738C356.77 376.44 357.599 377.269 357.599 378.301V404.004C357.599 405.662 356.254 407.007 354.597 407.007H180.369C179.595 407.007 178.956 406.382 178.956 405.594C178.956 404.819 179.581 404.181 180.369 404.181H280.314C281.971 404.222 283.316 402.863 283.316 401.206Z" fill="#BBFF74" stroke="#263238" stroke-width="1.3585" stroke-linecap="round" stroke-linejoin="round"/>
<path d="M244.395 281.59C244.395 281.59 230.362 282.038 209.984 277.066C189.607 272.08 172.857 275.708 169.678 295.175C166.512 314.642 218.584 334.571 254.815 341.812C291.046 349.053 327.264 352.232 344.924 344.529C362.585 336.827 362.136 309.208 355.344 296.533C348.551 283.859 325.905 282.038 314.141 283.859C302.349 285.665 244.395 281.59 244.395 281.59Z" fill="#263238" stroke="#263238" stroke-width="1.3585" stroke-linecap="round" stroke-linejoin="round"/>
<path d="M335.863 196.466C333.92 183.425 331.991 170.369 330.035 157.314C328.228 145.196 327.467 132.223 324.316 120.39C320.24 102.73 314.127 93.2203 295.787 89.824C277.447 86.4278 257.07 106.126 257.07 114.956C257.07 123.787 263.373 143.716 253.674 175.07C250.359 185.788 263.183 187.31 278.684 182.569L335.863 196.466Z" fill="#263238" stroke="#263238" stroke-width="1.3585" stroke-linecap="round" stroke-linejoin="round"/>
<path d="M286.617 169.296C286.617 169.296 264.202 172.353 253.674 175.07C243.145 177.787 239.355 181.645 235.619 188.777C231.883 195.909 226.191 222.658 220.757 233.866C215.323 245.074 205.447 248.089 203.749 259.976C202.051 271.863 211.56 275.939 218.692 277.297C225.825 278.656 234.655 278.995 234.655 278.995C234.655 278.995 246.202 306.165 268.617 308.203C291.033 310.241 307.674 294.618 317.863 288.844C328.052 283.071 328.731 269.825 329.071 254.542C329.41 239.259 338.444 204.903 336.067 195.393C333.689 185.884 330.13 184.321 314.711 176.401C308.095 173.005 296.127 168.617 286.617 169.296Z" fill="#BBFF74" stroke="#263238" stroke-width="1.3585" stroke-linecap="round" stroke-linejoin="round"/>
<path d="M216.152 240.876C210.976 247.084 205.039 250.997 203.749 259.976C203.464 262 203.518 263.766 203.803 265.369C205.189 267.462 209.441 272.42 217.741 270.043C228.12 267.081 227.006 252.613 220.703 243.729C219.453 241.949 217.877 241.08 216.152 240.876Z" fill="white" stroke="#263238" stroke-width="1.3585" stroke-linecap="round" stroke-linejoin="round"/>
<path d="M285.028 215.159C294.524 210.812 299.659 203.286 304.02 189.049C306.058 182.379 307.226 177.108 307.892 173.385C301.439 170.913 293.41 168.807 286.617 169.296C286.617 169.296 276.945 170.614 267.313 172.299C266.512 177.298 264.596 191.521 266.838 202.118C269.609 215.159 275.532 219.507 285.028 215.159Z" fill="white" stroke="#263238" stroke-width="1.3585" stroke-linecap="round" stroke-linejoin="round"/>
<path d="M240.089 264.731C240.089 264.731 246.881 247.75 246.881 242.995C246.881 238.24 243.825 233.485 241.447 227.372C239.07 221.259 245.183 211.07 245.183 211.07C245.183 211.07 249.041 181.536 252.601 176.401" stroke="#263238" stroke-width="1.3585" stroke-linecap="round" stroke-linejoin="round"/>
<path d="M207.824 231.448L212.919 226.014C212.919 226.014 216.084 227.97 223.447 230.429C237.209 235.007 243.485 237.901 244.164 246.052C244.164 246.052 253.334 240.278 262.504 241.297C271.674 242.316 279.825 246.052 282.542 246.391C285.259 246.731 285.259 246.731 285.259 246.731L285.938 251.486L280.844 278.316L241.108 274.24L213.938 250.467L207.824 231.448Z" fill="white" stroke="#263238" stroke-width="1.3585" stroke-linecap="round" stroke-linejoin="round"/>
<path d="M206.126 230.429L238.391 257.938L241.787 252.504L287.976 251.486L285.259 281.373L241.447 279.335L238.391 281.373L214.617 263.712L206.126 230.429Z" fill="#263238" stroke="#263238" stroke-width="1.3585" stroke-linecap="round" stroke-linejoin="round"/>
<path d="M318.542 221.259L317.863 259.976C317.863 259.976 297.825 271.184 286.617 274.24C275.41 277.297 268.617 277.297 267.598 277.297C266.58 277.297 262.164 270.165 259.787 267.788C257.41 265.41 255.494 265.369 251.147 263.196C245.102 260.166 242.466 259.637 242.806 260.995C243.145 262.354 243.485 263.712 246.542 265.41C249.598 267.108 251.636 268.467 251.636 268.467L252.315 269.825C252.315 269.825 244.844 268.806 241.787 268.127C238.73 267.448 230.919 262.014 230.919 262.014C230.919 262.014 227.591 261.81 229.968 265.886C232.345 269.961 234.655 270.165 234.655 270.165C234.655 270.165 235.334 274.24 238.051 276.618C240.768 278.995 242.806 280.354 242.806 280.354C242.806 280.354 236.353 278.656 237.032 280.354C237.711 282.052 241.787 282.731 246.881 285.108C251.976 287.486 263.523 287.825 269.976 288.844C276.429 289.863 291.712 290.882 305.297 289.524C318.882 288.165 339.259 278.995 342.995 275.939C346.731 272.882 344.354 238.58 343.335 230.768C342.316 222.957 340.278 208.353 338.92 201.561C337.561 194.768 332.127 185.259 328.731 183.221C325.335 181.183 319.221 187.636 318.542 221.259Z" fill="white" stroke="#263238" stroke-width="1.3585" stroke-linecap="round" stroke-linejoin="round"/>
<path d="M234.655 270.165C234.655 270.165 242.738 274.96 248.797 276.305L234.655 270.165Z" fill="white"/>
<path d="M234.655 270.165C234.655 270.165 242.738 274.96 248.797 276.305" stroke="#263238" stroke-width="1.3585" stroke-linecap="round" stroke-linejoin="round"/>
<path d="M242.806 280.354C242.806 280.354 247.112 282.011 250.807 282.011L242.806 280.354Z" fill="white"/>
<path d="M242.806 280.354C242.806 280.354 247.112 282.011 250.807 282.011" stroke="#263238" stroke-width="1.3585" stroke-linecap="round" stroke-linejoin="round"/>
<path d="M235.687 273.616C235.687 273.616 241.407 277.99 249.802 280.001L235.687 273.616Z" fill="white"/>
<path d="M235.687 273.616C235.687 273.616 241.407 277.99 249.802 280.001" stroke="#263238" stroke-width="1.3585" stroke-linecap="round" stroke-linejoin="round"/>
<path d="M309.345 288.926C322.618 286.467 339.612 278.696 342.995 275.925C346.731 272.868 344.354 238.566 343.335 230.755C342.316 222.943 340.278 208.34 338.92 201.547C337.561 194.755 332.127 185.245 328.731 183.207C325.335 181.17 319.221 187.622 318.542 221.245L317.863 259.963C317.863 259.963 310.079 264.323 301.493 268.344C304.808 271.945 310.391 279.552 309.345 288.926Z" fill="#BBFF74" stroke="#263238" stroke-width="1.3585" stroke-linecap="round" stroke-linejoin="round"/>
<path d="M274.567 165.262C274.567 165.262 271.524 182.868 271.226 193.804C270.927 204.74 279.118 215.662 290.666 201.697C302.199 187.731 300.379 164.65 300.379 164.65C300.379 164.65 288.533 171.035 274.567 165.262Z" fill="white" stroke="#263238" stroke-width="1.3585" stroke-linecap="round" stroke-linejoin="round"/>
<path d="M275.478 172.856C275.478 172.856 276.089 182.27 275.179 187.432" stroke="#263238" stroke-width="1.3585" stroke-linecap="round" stroke-linejoin="round"/>
<path d="M207.036 256.363C207.036 256.363 206.181 258.781 207.553 261.022C208.925 263.264 216.166 267.57 216.166 265.845C216.166 264.12 212.552 261.715 212.375 260.506C212.199 259.297 211.166 257.572 211.166 257.572C211.166 257.572 208.585 254.298 207.036 256.363Z" fill="white" stroke="#263238" stroke-width="1.3585" stroke-linecap="round" stroke-linejoin="round"/>
<path d="M203.559 246.296C203.559 246.296 203.219 251.336 204.088 253.686C204.944 256.05 214.033 262.313 216.369 261.117C218.706 259.922 211.519 253.686 209.835 251.73C208.137 249.774 203.559 246.296 203.559 246.296Z" fill="white" stroke="#263238" stroke-width="1.3585" stroke-linecap="round" stroke-linejoin="round"/>
<path d="M203.586 240.169C203.586 240.169 202.893 245.168 203.586 247.587C204.279 250.005 212.892 256.892 215.31 255.86C217.728 254.827 211.003 248.103 209.455 246.038C207.906 243.959 203.586 240.169 203.586 240.169Z" fill="white" stroke="#263238" stroke-width="1.3585" stroke-linecap="round" stroke-linejoin="round"/>
<path d="M207.729 234.477C207.729 234.477 202.553 231.719 201.698 235.17C200.842 238.621 204.795 242.234 208.422 245.169C212.036 248.103 213.598 247.587 213.598 244.829C213.584 242.058 207.729 234.477 207.729 234.477Z" fill="white" stroke="#263238" stroke-width="1.3585" stroke-linecap="round" stroke-linejoin="round"/>
<path d="M207.254 342.274C207.254 342.274 200.461 345.901 187.787 346.35C175.112 346.798 164.692 340.005 170.574 334.571C176.457 329.137 185.518 325.972 193.669 327.331C201.82 328.689 214.046 331.854 214.046 331.854L207.254 342.274Z" fill="white" stroke="#263238" stroke-width="1.3585" stroke-linecap="round" stroke-linejoin="round"/>
<path d="M209.074 330.958C209.686 331.026 210.338 331.067 210.99 331.094C206.833 330.061 199.293 328.268 193.669 327.331C185.518 325.972 176.457 329.137 170.574 334.571C167.572 337.343 168.808 340.454 172.422 342.79C172.205 340.236 172.721 336.066 177.829 333.661C185.518 330.048 201.372 330.048 209.074 330.958Z" fill="white" stroke="#263238" stroke-width="1.3585" stroke-linecap="round" stroke-linejoin="round"/>
<path d="M349 304.684C349 304.684 335.415 325.062 321.83 333.213C308.245 341.364 246.202 342.274 233.527 342.274C220.852 342.274 207.267 342.274 207.267 342.274V332.765C207.267 332.765 248.933 326.882 272.027 313.746C295.122 300.609 307.348 286.127 325.457 280.231C343.566 274.349 359.419 284.307 358.971 308.76" fill="#263238"/>
<path d="M349 304.684C349 304.684 335.415 325.062 321.83 333.213C308.245 341.364 246.202 342.274 233.527 342.274C220.852 342.274 207.267 342.274 207.267 342.274V332.765C207.267 332.765 248.933 326.882 272.027 313.746C295.122 300.609 307.348 286.127 325.457 280.231C343.566 274.349 359.419 284.307 358.971 308.76" stroke="#263238" stroke-width="1.3585" stroke-linecap="round" stroke-linejoin="round"/>
<path d="M339.871 320.28C332.548 327.208 319.846 336.242 300.257 339.87" stroke="white" stroke-width="1.3585" stroke-linecap="round" stroke-linejoin="round"/>
<path d="M348.769 309.222C348.769 309.222 347.641 311.49 344.951 314.805" stroke="white" stroke-width="1.3585" stroke-linecap="round" stroke-linejoin="round"/>
<path d="M280.164 311.26C280.164 311.26 271.334 318.731 258.428 319.411" stroke="white" stroke-width="1.3585" stroke-linecap="round" stroke-linejoin="round"/>
<path d="M199.239 285.367C198.75 285.312 198.247 285.271 197.744 285.217L199.239 285.367Z" fill="#263238"/>
<path d="M199.239 285.367C198.75 285.312 198.247 285.271 197.744 285.217" stroke="#263238" stroke-width="1.3585" stroke-linecap="round" stroke-linejoin="round"/>
<path d="M326.802 344.081C326.802 344.081 338.118 340.005 347.628 338.647C357.137 337.288 364.84 338.647 367.557 344.529C370.274 350.412 368.467 357.666 358.958 359.473C349.448 361.28 332.236 357.666 330.429 357.666C328.622 357.666 325.905 356.307 325.905 356.307L326.802 344.081Z" fill="white" stroke="#263238" stroke-width="1.3585" stroke-linecap="round" stroke-linejoin="round"/>
<path d="M356.594 338.294C359.487 339.408 364.948 342.464 363.943 349.528C362.585 359.038 351.268 359.038 343.566 359.038C342.982 359.038 342.425 359.12 341.881 359.269C347.587 359.948 354.216 360.383 358.958 359.486C368.467 357.679 370.274 350.425 367.557 344.543C365.764 340.657 361.81 338.756 356.594 338.294Z" fill="white" stroke="#263238" stroke-width="1.3585" stroke-linecap="round" stroke-linejoin="round"/>
<path d="M194.131 275.259C194.131 275.259 178.739 272.542 168.767 280.245C158.81 287.948 160.168 296.099 169.678 307.863C179.187 319.641 203.64 340.467 256.622 349.977C309.603 359.486 325.905 356.321 325.905 356.321L326.815 344.094C326.815 344.094 293.763 345.901 263.414 323.717C233.758 302.035 220.54 287.703 199.252 285.366" fill="#263238"/>
<path d="M194.131 275.259C194.131 275.259 178.739 272.542 168.767 280.245C158.81 287.948 160.168 296.099 169.678 307.863C179.187 319.641 203.64 340.467 256.622 349.977C309.603 359.486 325.905 356.321 325.905 356.321L326.815 344.094C326.815 344.094 293.763 345.901 263.414 323.717C233.758 302.035 220.54 287.703 199.252 285.366" stroke="#263238" stroke-width="1.3585" stroke-linecap="round" stroke-linejoin="round"/>
<path d="M193.329 285.543C191.685 285.625 190.082 285.828 188.466 286.127" stroke="white" stroke-width="1.3585" stroke-linecap="round" stroke-linejoin="round"/>
<path d="M320.24 343.864C320.24 343.864 288.995 343.184 253.674 316.014C228.705 296.805 213.924 288.464 202.132 286.182" stroke="white" stroke-width="1.3585" stroke-linecap="round" stroke-linejoin="round"/>
<path d="M319.941 146.378C311.6 150.78 310.473 141.95 310.5 136.624C310.581 136.543 310.649 136.475 310.663 136.393C311.274 133.948 310.663 121.749 303.639 116.858C297.445 112.552 289.239 108.843 281.577 108.83C276.184 108.816 271.389 112.267 268.495 116.627C265.044 121.83 265.343 127.862 265.058 133.88C264.773 139.953 264.202 146.514 265.411 152.519C267.014 160.534 274.5 177.379 283.588 177.379C291.834 177.379 306.479 165.044 311.505 157.776C312.089 157.6 313.271 157.138 314.589 156.01C316.477 154.394 320.213 151.731 319.941 146.378Z" fill="white" stroke="#263238" stroke-width="1.3585" stroke-linecap="round" stroke-linejoin="round"/>
<path d="M283.602 141.04C283.602 141.04 279.866 152.532 280.124 153.864C280.395 155.195 284.933 153.864 284.933 153.864" stroke="#263238" stroke-width="1.3585" stroke-linecap="round" stroke-linejoin="round"/>
<path d="M280.124 158.673C280.124 158.673 285.069 162.395 292.948 156.54" stroke="#263238" stroke-width="1.3585" stroke-linecap="round" stroke-linejoin="round"/>
<path d="M292.146 145.047C292.146 145.047 294.823 150.658 303.368 147.452" stroke="#263238" stroke-width="1.3585" stroke-linecap="round" stroke-linejoin="round"/>
<path d="M267.829 138.363C267.829 138.363 269.432 143.974 277.991 141.841" stroke="#263238" stroke-width="1.3585" stroke-linecap="round" stroke-linejoin="round"/>
<path d="M282.977 134.098C282.977 134.098 279.947 123.189 269.962 128.745" stroke="#263238" stroke-width="1.3585" stroke-linecap="round" stroke-linejoin="round"/>
<circle cx="296.707" cy="145.869" r="10.6912" transform="rotate(-67.6102 296.707 145.869)" stroke="#263238" stroke-width="1.35848" stroke-linecap="round" stroke-linejoin="round"/>
<circle cx="272.109" cy="141.04" r="10.6914" stroke="#263238" stroke-width="1.3585" stroke-linecap="round" stroke-linejoin="round"/>
<path d="M306.845 147.981L315.676 146.378" stroke="#263238" stroke-width="1.3585" stroke-linecap="round" stroke-linejoin="round"/>
<path d="M261.689 138.363L264.895 135.959" stroke="#263238" stroke-width="1.3585" stroke-linecap="round" stroke-linejoin="round"/>
<path d="M272.217 112.891C272.217 112.891 281.672 107.091 285.028 112.593C288.383 118.081 303.585 154.543 319.941 146.378C336.298 138.227 319.819 111.37 303.952 102.825C288.085 94.28 274.663 101.602 272.217 112.891Z" fill="#263238" stroke="#263238" stroke-width="1.3585" stroke-linecap="round" stroke-linejoin="round"/>
<path d="M281.591 108.83C281.591 108.83 276.252 104.333 273.141 106.398C270.03 108.476 270.03 111.058 270.03 111.058" stroke="white" stroke-width="1.3585" stroke-linecap="round" stroke-linejoin="round"/>
<path d="M320.526 136.801C321.735 137.575 323.039 138.16 324.465 138.553" stroke="white" stroke-width="1.3585" stroke-linecap="round" stroke-linejoin="round"/>
<path d="M279.363 97.5948C279.363 97.5948 288.696 87.2294 299.061 103.3C305.867 113.842 309.766 124.398 314.874 131.272" stroke="white" stroke-width="1.3585" stroke-linecap="round" stroke-linejoin="round"/>
<path d="M294.633 132.603C294.633 132.603 302.118 128.596 308.53 134.736" stroke="white" stroke-width="1.3585" stroke-linecap="round" stroke-linejoin="round"/>
<path d="M280.708 236.42C280.708 236.42 290.951 249.23 307.864 249.23" stroke="#263238" stroke-width="1.3585" stroke-linecap="round" stroke-linejoin="round"/>
<path d="M36.4224 499.412H505.254" stroke="#263238" stroke-width="1.3585" stroke-linecap="round" stroke-linejoin="round"/>
</svg>
